<?xml version="1.0" standalone="no"?>
<!DOCTYPE svg PUBLIC "-//W3C//DTD SVG 1.1//EN" "http://www.w3.org/Graphics/SVG/1.1/DTD/svg11.dtd" >
<svg xmlns="http://www.w3.org/2000/svg">
<metadata>Generated by IcoMoon</metadata>
<defs>
<font id="icomoon" horiz-adv-x="1024">
<font-face units-per-em="1024" ascent="960" descent="-64" />
<missing-glyph horiz-adv-x="1024" />
<glyph unicode="&#x20;" horiz-adv-x="512" d="" />
<glyph unicode="&#xe800;" glyph-name="logout" horiz-adv-x="950" d="M365.568 136.704q0-2.048 1.024-11.264t0-14.336-2.048-14.336-5.12-11.264-12.288-3.072h-182.272q-68.608 0-116.736 48.128t-48.128 116.736v401.408q0 68.608 48.128 116.736t116.736 48.128h182.272q8.192 0 13.312-5.12t5.12-13.312q0-2.048 1.024-11.264t0-15.36-2.048-13.312-5.12-11.264-12.288-3.072h-182.272q-37.888 0-64.512-27.648t-27.648-64.512v-401.408q0-37.888 27.648-64.512t64.512-27.648h178.176t6.144 0 7.168-2.048 4.096-3.072 4.096-5.12 1.024-8.192zM896 448q0-14.336-11.264-25.6l-310.272-311.296q-11.264-10.24-25.6-10.24t-25.6 10.24-11.264 25.6v164.864h-256q-14.336 0-25.6 11.264t-11.264 25.6v219.136q0 15.36 11.264 25.6t25.6 11.264h256v164.864q0 14.336 11.264 25.6t25.6 10.24 25.6-10.24l310.272-311.296q11.264-10.24 11.264-25.6z" />
<glyph unicode="&#xe801;" glyph-name="down" horiz-adv-x="594" d="M577.536 521.728l-239.616-229.376q-18.432-18.432-40.96-18.432t-40.96 18.432l-239.616 229.376q-16.384 16.384-16.384 41.984t16.384 41.984q38.912 38.912 79.872 0l200.704-192.512 200.704 192.512q40.96 38.912 79.872 0 16.384-16.384 16.384-41.984t-16.384-41.984z" />
<glyph unicode="&#xe802;" glyph-name="left" horiz-adv-x="349" d="M247.808 730.624q14.336 16.384 39.936 16.384t41.984-16.384q38.912-36.864 0-81.92l-190.464-200.704 190.464-198.656q38.912-45.056 0-81.92-16.384-16.384-40.96-16.384t-40.96 16.384l-231.424 241.664q-16.384 16.384-16.384 38.912 0 24.576 16.384 40.96 210.944 219.136 231.424 241.664z" />
<glyph unicode="&#xe803;" glyph-name="right" horiz-adv-x="348" d="M100.352 730.624l231.424-241.664q16.384-16.384 16.384-40.96 0-22.528-16.384-38.912l-231.424-241.664q-16.384-16.384-40.96-16.384t-40.96 16.384q-36.864 36.864 0 81.92l190.464 198.656-190.464 200.704q-36.864 45.056 0 81.92 16.384 16.384 41.984 16.384t39.936-16.384z" />
<glyph unicode="&#xe804;" glyph-name="up" horiz-adv-x="594" d="M577.536 376.32q16.384-16.384 16.384-41.984t-16.384-41.984q-38.912-38.912-79.872 0l-200.704 192.512-200.704-192.512q-40.96-38.912-79.872 0-16.384 16.384-16.384 41.984t16.384 41.984l239.616 229.376q16.384 16.384 40.96 16.384t40.96-16.384z" />
<glyph unicode="&#xe805;" glyph-name="views" d="M0 448q6.144 50.176 65.536 112.64 80.896 81.92 180.224 132.096 132.096 61.44 266.24 61.44 140.288-2.048 266.24-61.44 105.472-54.272 180.224-132.096 65.536-74.752 65.536-112.64-6.144-50.176-65.536-111.616-80.896-81.92-180.224-132.096-132.096-62.464-266.24-62.464-140.288 2.048-266.24 62.464-105.472 54.272-180.224 132.096-65.536 73.728-65.536 111.616zM270.336 448q0-96.256 70.656-162.816t171.008-66.56 171.008 66.56 70.656 162.816-70.656 162.816-171.008 67.584-171.008-67.584-70.656-162.816zM358.4 449.024q0 61.44 45.056 104.448t108.544 43.008 108.544-43.008 45.056-104.448-45.056-104.448-108.544-44.032-108.544 44.032-45.056 104.448z" />
<glyph unicode="&#xe806;" glyph-name="menu-down" d="M961.536 498.176l-423.936-422.912q-10.24-11.264-25.6-11.264t-25.6 11.264l-423.936 422.912q-11.264 11.264-11.264 26.624t11.264 25.6l94.208 94.208q11.264 11.264 26.624 11.264t25.6-11.264l303.104-303.104 303.104 303.104q11.264 11.264 25.6 11.264t26.624-11.264l94.208-94.208q11.264-11.264 11.264-25.6t-11.264-26.624z" />
<glyph unicode="&#xe807;" glyph-name="left-arrow" horiz-adv-x="731" d="M668.672 787.968l-303.104-303.104 303.104-304.128q11.264-10.24 11.264-25.6t-11.264-25.6l-94.208-95.232q-11.264-10.24-25.6-10.24t-25.6 10.24l-423.936 424.96q-11.264 10.24-11.264 25.6t11.264 25.6l423.936 423.936q10.24 10.24 25.6 10.24t25.6-10.24l94.208-95.232q11.264-10.24 11.264-25.6t-11.264-25.6z" />
<glyph unicode="&#xe808;" glyph-name="right-arrow" horiz-adv-x="731" d="M632.832 459.264l-423.936-424.96q-11.264-10.24-25.6-10.24t-26.624 10.24l-94.208 95.232q-11.264 11.264-11.264 25.6t11.264 25.6l303.104 304.128-303.104 303.104q-11.264 11.264-11.264 25.6t11.264 25.6l94.208 95.232q11.264 10.24 26.624 10.24t25.6-10.24l423.936-423.936q10.24-11.264 10.24-25.6t-10.24-25.6z" />
<glyph unicode="&#xe809;" glyph-name="menu-up" d="M961.536 199.168l-94.208-94.208q-11.264-10.24-26.624-10.24t-25.6 10.24l-303.104 304.128-303.104-304.128q-11.264-10.24-25.6-10.24t-26.624 10.24l-94.208 94.208q-11.264 11.264-11.264 26.624t11.264 25.6l423.936 423.936q11.264 10.24 25.6 10.24t25.6-10.24l423.936-423.936q11.264-11.264 11.264-25.6t-11.264-26.624z" />
<glyph unicode="&#xe80a;" glyph-name="search" horiz-adv-x="913" d="M584.151 559.861c-0.556-131.95-107.649-238.7-239.674-238.7-132.369 0-239.679 107.307-239.679 239.679s107.305 239.676 239.674 239.679c132.458-0.406 239.679-107.88 239.679-240.392 0-0.094 0-0.184 0-0.276zM912.975 54.115c-0.025 16.824-6.76 32.073-17.671 43.215l-268.665 251.721c36.745 60.249 59.516 132.608 62.148 210.079-0.536 190.515-154.516 344.15-344.377 344.15-190.207 0-344.398-154.191-344.398-344.398s154.191-344.398 344.396-344.398c78.156 2.732 150.426 25.641 212.451 63.641l251.85-267.152c10.896-11.251 26.136-18.237 43.007-18.246 33.782 0.294 61.073 27.654 61.257 61.433z" />
<glyph unicode="&#xe80b;" glyph-name="user" horiz-adv-x="1000" d="M0-32.256q0 9.216 1.024 23.552t11.264 45.056 26.624 49.152q17.408 17.408 66.56 37.888t110.592 43.008 92.16 36.864q36.864 18.432 56.32 55.296t20.48 74.752q0 27.648-31.744 63.488-18.432 21.504-31.744 60.416-45.056 18.432-45.056 73.728 0 41.984 15.36 60.416-4.096 27.648-9.216 81.92-1.024 8.192-2.048 21.504t2.048 45.056 15.36 54.272q19.456 33.792 48.128 46.080t48.128 5.12q1.024 0 1.024 0 1.024 5.12 4.096 13.312t14.336 22.528 25.6 20.48q8.192 4.096 25.6 6.144t44.032 1.024 53.248-8.192 55.296-21.504 50.176-38.912 35.84-60.416 15.36-86.016q0-10.24 0-20.48-4.096-46.080-9.216-81.92 14.336-18.432 14.336-60.416 0-55.296-45.056-73.728-13.312-38.912-31.744-60.416-31.744-35.84-31.744-63.488 0-38.912 20.48-74.752t56.32-55.296q29.696-15.36 92.16-36.864t111.616-43.008 65.536-37.888q18.432-17.408 27.648-46.080t10.24-51.2l1.024-20.48h-1000.448z" />
<glyph unicode="&#xe80c;" glyph-name="menu-left" d="M819.2 960c14.336 0 29.696-14.336 44.032-29.696 28.672-28.672 14.336-72.704 0-87.040l-467.968-395.264 453.632-395.264c28.672-28.672 28.672-58.368 0-87.040-15.36-29.696-44.032-44.032-73.728-15.36l-512 439.296c-28.672 14.336-28.672 28.672-28.672 58.368 0 14.336 14.336 29.696 28.672 44.032l512 453.632c14.336 14.336 29.696 14.336 44.032 14.336z" />
<glyph unicode="&#xe80d;" glyph-name="menu-right" d="M204.8-64c-14.336 0-29.696 14.336-44.032 29.696-28.672 14.336-14.336 58.368 14.336 87.040l453.632 409.6-453.632 380.928c-28.672 28.672-43.008 72.704-14.336 87.040 29.696 29.696 58.368 29.696 88.064 0l512-438.272c14.336-14.336 28.672-29.696 28.672-44.032s-14.336-29.696-28.672-44.032l-512-453.632c-14.336-14.336-29.696-14.336-44.032-14.336z" />
<glyph unicode="&#xe80f;" glyph-name="star" horiz-adv-x="950" d="M951.296 590.336q0-12.288-15.36-27.648l-207.872-201.728 49.152-285.696q1.024-4.096 1.024-12.288 0-11.264-6.144-19.456t-17.408-9.216q-10.24 0-22.528 7.168l-257.024 135.168-256-135.168q-13.312-7.168-23.552-7.168-11.264 0-17.408 9.216t-6.144 19.456q0 4.096 1.024 12.288l49.152 285.696-207.872 201.728q-14.336 15.36-14.336 27.648 0 21.504 31.744 26.624l286.72 40.96 129.024 260.096q11.264 23.552 27.648 23.552t28.672-23.552l128-260.096 286.72-40.96q32.768-5.12 32.768-26.624z" />
<glyph unicode="&#xe810;" glyph-name="mail" d="M951.296 100.864v438.272q-18.432-20.48-39.936-37.888-152.576-116.736-243.712-192.512-28.672-24.576-47.104-38.912t-49.152-27.648-58.368-13.312h-2.048q-26.624 0-58.368 13.312t-49.152 27.648-47.104 38.912q-90.112 75.776-243.712 192.512-21.504 17.408-39.936 37.888v-438.272q0-8.192 6.144-13.312t12.288-5.12h841.728q7.168 0 12.288 5.12t6.144 13.312zM951.296 700.928v14.336t-1.024 7.168-1.024 7.168-3.072 5.12-5.12 4.096-8.192 2.048h-841.728q-7.168 0-12.288-6.144t-6.144-12.288q0-96.256 83.968-162.816 110.592-87.040 229.376-181.248 4.096-2.048 20.48-16.384t25.6-21.504 25.6-18.432 28.672-15.36 24.576-5.12h2.048q11.264 0 24.576 5.12t28.672 15.36 25.6 18.432 25.6 21.504 20.48 16.384q118.784 94.208 229.376 181.248 30.72 24.576 57.344 66.56t26.624 74.752zM1024 722.432v-621.568q0-37.888-26.624-64.512t-64.512-27.648h-841.728q-36.864 0-64.512 27.648t-26.624 64.512v621.568q0 37.888 26.624 64.512t64.512 26.624h841.728q37.888 0 64.512-26.624t26.624-64.512z" />
<glyph unicode="&#xe811;" glyph-name="behance" d="M413.696 484.864q57.344 0 87.040-40.96t31.744-81.92v-40.96q0-57.344-20.48-98.304t-51.2-59.392-60.416-27.648-50.176-11.264h-350.208v661.504h329.728q79.872 0 130.048-45.056t50.176-131.072q0-51.2-23.552-82.944t-48.128-37.888zM145.408 669.184v-147.456h174.080q26.624 0 40.96 15.36t14.336 62.464q0 30.72-11.264 48.128t-23.552 19.456l-10.24 2.048h-184.32zM321.536 243.2q75.776 0 75.776 86.016 0 40.96-16.384 63.488t-32.768 24.576l-18.432 2.048h-184.32v-176.128h176.128zM800.768 617.984q71.68 0 120.832-29.696t68.608-71.68 27.648-83.968 6.144-70.656l-2.048-30.72h-327.68q0-55.296 27.648-83.968t56.32-28.672l26.624-2.048q47.104 0 72.704 17.408t27.648 33.792l2.048 18.432h110.592q0-83.968-54.272-126.976t-107.52-45.056l-55.296-2.048q-73.728 0-124.928 25.6t-73.728 63.488-33.792 74.752-11.264 61.44v26.624q0 10.24 1.024 27.648t14.336 61.44 36.864 76.8 73.728 60.416 117.76 27.648zM901.12 419.328q0 4.096-1.024 11.264t-6.144 24.576-13.312 30.72-28.672 24.576-47.104 11.264q-43.008 0-71.68-25.6t-34.816-52.224l-6.144-24.576h208.896zM927.744 747.008v-79.872h-262.144v79.872h262.144z" />
<glyph unicode="&#xe812;" glyph-name="blogger" horiz-adv-x="1015" d="M563.2 960l-307.2-1.024c-131.072-18.432-242.688-99.328-251.904-236.544-3.072-13.312-2.048-25.6-2.048-37.888-2.048-60.416-1.024-124.928-1.024-186.368 1.024-98.304-2.048-177.152 0-249.856 1.024-214.016 126.976-313.344 356.352-309.248 56.32 1.024 121.856 1.024 196.608-1.024 73.728 0 131.072-5.12 181.248 2.048 226.304 31.744 270.336 183.296 279.552 306.176v140.288c-6.144 143.36-110.592 182.272-198.656 185.344 9.216 35.84 12.288 83.968 3.072 149.504-10.24 126.976-100.352 226.304-256 238.592zM306.176 768.512h250.88c138.24-18.432 132.096-167.936 0-189.44h-250.88c-138.24 18.432-132.096 167.936 0 189.44zM248.832 354.816l460.8-2.048c139.264-17.408 139.264-187.392 5.12-207.872l-460.8 2.048c-142.336 17.408-140.288 186.368-5.12 207.872z" />
<glyph unicode="&#xe813;" glyph-name="delicious" horiz-adv-x="1033" d="M0-64v513.024h513.024v-513.024h-513.024zM521.216 446.976v513.024h512v-513.024h-512z" />
<glyph unicode="&#xe814;" glyph-name="deviantart" horiz-adv-x="1017" d="M368.64 659.968l5.12-348.16h-210.944c23.552 100.352 70.656 181.248 207.872 201.728l-2.048 45.056c-300.032-38.912-364.544-203.776-368.64-322.56l484.352 1.024v289.792c146.432 4.096 327.68-2.048 377.856-212.992l-215.040 2.048v147.456c-38.912 11.264-71.68 11.264-108.544 9.216l-2.048-235.52h480.256c5.12 235.52-203.776 342.016-532.48 336.896v86.016h-115.712z" />
<glyph unicode="&#xe815;" glyph-name="digg" horiz-adv-x="1149" d="M0 245.248v380.928q0 13.312 13.312 13.312h180.224v132.096q0 14.336 13.312 14.336h100.352v-526.336q0-14.336-12.288-14.336h-294.912zM111.616 330.24h68.608q13.312 0 13.312 14.336v210.944h-68.608q-13.312 0-13.312-14.336v-210.944zM342.016 245.248v380.928q0 13.312 13.312 13.312h100.352v-379.904q0-14.336-12.288-14.336h-101.376zM342.016 700.928v70.656q0 14.336 12.288 14.336h101.376v-70.656q0-14.336-12.288-14.336h-101.376zM494.592 245.248v380.928q0 13.312 13.312 13.312h294.912v-516.096q0-13.312-13.312-13.312h-294.912l1.024 70.656q0 14.336 12.288 14.336h180.224v50.176h-193.536zM607.232 330.24h68.608q12.288 0 12.288 14.336v210.944h-68.608q-12.288 0-12.288-14.336v-210.944zM841.728 180.736q0 14.336 13.312 14.336h180.224v50.176h-193.536v380.928q0 13.312 13.312 13.312h293.888v-516.096q0-13.312-12.288-13.312h-294.912v70.656zM953.344 330.24h68.608q13.312 0 13.312 14.336v210.944h-68.608q-13.312 0-13.312-14.336v-210.944z" />
<glyph unicode="&#xe816;" glyph-name="dribbble" d="M0 448q0 139.264 68.608 257.024t186.368 186.368 257.024 68.608 257.024-68.608 186.368-186.368 68.608-257.024-68.608-257.024-186.368-186.368-257.024-68.608-257.024 68.608-186.368 186.368-68.608 257.024zM84.992 448q0-159.744 107.52-281.6 49.152 96.256 155.648 183.296t207.872 109.568q-15.36 35.84-29.696 64.512-176.128-56.32-380.928-56.32-39.936 0-59.392 1.024 0-4.096 0-10.24t-1.024-10.24zM98.304 553.472q22.528-2.048 66.56-2.048 171.008 0 324.608 46.080-77.824 138.24-171.008 230.4-80.896-40.96-138.24-113.664t-81.92-160.768zM250.88 111.104q115.712-90.112 261.12-90.112 75.776 0 150.528 28.672-20.48 175.104-79.872 338.944-94.208-20.48-189.44-103.424t-142.336-174.080zM407.552 860.672q90.112-93.184 166.912-232.448 139.264 58.368 209.92 148.48-118.784 98.304-272.384 98.304-52.224 0-104.448-14.336zM611.328 555.52q15.36-32.768 34.816-82.944 75.776 7.168 164.864 7.168 63.488 0 125.952-3.072-8.192 139.264-100.352 247.808-66.56-99.328-225.28-168.96zM671.744 400.896q52.224-151.552 70.656-311.296 80.896 52.224 132.096 134.144t61.44 177.152q-74.752 5.12-136.192 5.12-56.32 0-128-5.12z" />
<glyph unicode="&#xe817;" glyph-name="evernote" horiz-adv-x="857" d="M0 643.584q0 40.96 15.36 59.392 9.216 14.336 26.624 21.504 18.432 9.216 48.128 9.216h96.256q15.36 0 26.624 11.264t11.264 26.624q0 21.504-1.024 45.056v60.416q0 25.6 12.288 45.056 15.36 21.504 51.2 31.744 11.264 6.144 54.272 6.144h19.456q60.416-2.048 100.352-17.408 38.912-16.384 46.080-63.488 26.624 1.024 49.152 1.024 54.272 0 91.136-5.12 99.328-12.288 132.096-24.576 43.008-13.312 54.272-68.608 10.24-56.32 18.432-215.040 5.12-91.136 5.12-150.528 0-45.056-3.072-72.704-16.384-176.128-44.032-260.096-14.336-43.008-28.672-70.656t-27.648-43.008-37.888-23.552-43.008-9.216-60.416-1.024q-110.592 0-148.48 25.6t-38.912 109.568q0 46.080 10.24 73.728t33.792 37.888 47.104 13.312q15.36 1.024 40.96 1.024h28.672q4.096 0 6.144-1.024t0-5.12-2.048-8.192-3.072-11.264-2.048-13.312q0-9.216 2.048-18.432t1.024-12.288-7.168-3.072h-20.48t-10.24 0-10.24-2.048-8.192-2.048-8.192-4.096-6.144-6.144-4.096-9.216-1.024-12.288q0-14.336 4.096-23.552t8.192-14.336 18.432-7.168 22.528-2.048h32.768q58.368 0 74.752 13.312t16.384 65.536q0 77.824-18.432 105.472t-58.368 31.744q-90.112 9.216-121.856 20.48-54.272 20.48-54.272 121.856 0 2.048-2.048 2.048t-3.072-2.048q0-68.608-18.432-122.88l-8.192-24.576q-11.264-25.6-37.888-26.624h-6.144q-24.576 0-55.296 8.192-130.048 16.384-202.752 48.128-24.576 11.264-37.888 40.96-17.408 35.84-35.84 132.096t-24.576 136.192q-4.096 33.792-4.096 52.224zM6.144 765.44v2.048l187.392 184.32q0 1.024 1.024 1.024l-3.072-6.144q-11.264-20.48-11.264-49.152 0-22.528 1.024-105.472 0-10.24-10.24-10.24h-95.232q-34.816 0-60.416-11.264-5.12-3.072-9.216-5.12zM587.776 468.48q21.504 3.072 47.104 3.072 46.080-1.024 82.944-18.432 0 87.040-62.464 89.088h-3.072q-30.72 0-45.056-20.48-15.36-21.504-19.456-53.248z" />
<glyph unicode="&#xe818;" glyph-name="facebook" horiz-adv-x="512" d="M512 749.056h-145.408q-14.336 0-25.6-15.36t-11.264-37.888v-104.448h182.272v-151.552h-182.272v-452.608h-174.080v452.608h-155.648v151.552h155.648v88.064q0 96.256 60.416 162.816t150.528 66.56h145.408v-159.744z" />
<glyph unicode="&#xe819;" glyph-name="flickr" horiz-adv-x="922" d="M200.704 243.2q-81.92 0-141.312 60.416t-59.392 144.384q0 86.016 58.368 145.408t142.336 59.392 142.336-59.392 58.368-145.408q0-83.968-59.392-144.384t-141.312-60.416zM720.896 243.2q-81.92 0-141.312 60.416t-59.392 144.384q0 86.016 58.368 145.408t142.336 59.392 142.336-59.392 58.368-145.408q0-83.968-59.392-144.384t-141.312-60.416z" />
<glyph unicode="&#xe81a;" glyph-name="forrst" horiz-adv-x="854" d="M0-64l427.008 1024 427.008-1024h-377.856v138.24l174.080 87.040-13.312 56.32-160.768-80.896v68.608l100.352 53.248-14.336 58.368-86.016-46.080v89.088h-94.208v-160.768l-88.064 60.416-16.384-65.536 104.448-71.68v-186.368h-381.952z" />
<glyph unicode="&#xe81b;" glyph-name="googleplus" horiz-adv-x="1318" d="M1157.465 419.12h144.829v101.001h-144.829v141.982h-103.034v-141.982h-144.829v-101.001h144.829v-141.982h103.034v141.982zM414.749 41.384c253.075 0 396.931 182.077 396.931 406.606 0 27.738-2.846 54.733-8.22 80.829h-388.717v-162.806h221.767c-27.244-101.814-115.48-158.9-221.767-158.9-135.723 0-243.393 107.826-243.393 240.878s107.666 240.878 243.393 240.878c62.212 0 113.606-18.952 156.867-56.272l119.705 117.353c-74.004 67.251-167.686 104.66-276.572 104.66-229.086 0-414.738-182.077-414.738-406.606s185.661-406.606 414.738-406.606z" />
<glyph unicode="&#xe81c;" glyph-name="html5" horiz-adv-x="804" d="M646.144 619.008l9.216 100.352h-505.856l26.624-305.152h350.208l-12.288-131.072-112.64-29.696-112.64 29.696-7.168 79.872h-100.352l13.312-158.72 206.848-56.32h2.048l204.8 56.32 28.672 311.296h-367.616l-9.216 103.424h386.048zM0 887.296h804.864l-73.728-822.272-329.728-92.16-328.704 92.16z" />
<glyph unicode="&#xe81d;" glyph-name="instagram" horiz-adv-x="878" d="M585.143 448c0 80.571-65.714 146.286-146.286 146.286s-146.286-65.714-146.286-146.286 65.714-146.286 146.286-146.286 146.286 65.714 146.286 146.286zM664 448c0-124.571-100.571-225.143-225.143-225.143s-225.143 100.571-225.143 225.143 100.571 225.143 225.143 225.143 225.143-100.571 225.143-225.143zM725.714 682.286c0-29.143-23.429-52.571-52.571-52.571s-52.571 23.429-52.571 52.571 23.429 52.571 52.571 52.571 52.571-23.429 52.571-52.571zM438.857 808c-64 0-201.143 5.143-258.857-17.714-20-8-34.857-17.714-50.286-33.143s-25.143-30.286-33.143-50.286c-22.857-57.714-17.714-194.857-17.714-258.857s-5.143-201.143 17.714-258.857c8-20 17.714-34.857 33.143-50.286s30.286-25.143 50.286-33.143c57.714-22.857 194.857-17.714 258.857-17.714s201.143-5.143 258.857 17.714c20 8 34.857 17.714 50.286 33.143s25.143 30.286 33.143 50.286c22.857 57.714 17.714 194.857 17.714 258.857s5.143 201.143-17.714 258.857c-8 20-17.714 34.857-33.143 50.286s-30.286 25.143-50.286 33.143c-57.714 22.857-194.857 17.714-258.857 17.714zM877.714 448c0-60.571 0.571-120.571-2.857-181.143-3.429-70.286-19.429-132.571-70.857-184s-113.714-67.429-184-70.857c-60.571-3.429-120.571-2.857-181.143-2.857s-120.571-0.571-181.143 2.857c-70.286 3.429-132.571 19.429-184 70.857s-67.429 113.714-70.857 184c-3.429 60.571-2.857 120.571-2.857 181.143s-0.571 120.571 2.857 181.143c3.429 70.286 19.429 132.571 70.857 184s113.714 67.429 184 70.857c60.571 3.429 120.571 2.857 181.143 2.857s120.571 0.571 181.143-2.857c70.286-3.429 132.571-19.429 184-70.857s67.429-113.714 70.857-184c3.429-60.571 2.857-120.571 2.857-181.143z" />
<glyph unicode="&#xe81e;" glyph-name="lastfm" horiz-adv-x="1361" d="M0 448q0 167.936 118.784 286.72t286.72 118.784q126.976 0 225.28-64.512t149.504-185.344q15.36-36.864 132.096-307.2 21.504-49.152 38.912-74.752t50.176-46.080 80.896-22.528h7.168q68.608 0 113.664 36.864 47.104 38.912 48.128 98.304 0 27.648-8.192 46.080t-29.696 32.768-41.984 22.528-60.416 20.48q-128 41.984-184.32 92.16t-56.32 138.24q0 93.184 59.392 149.504t159.744 55.296q130.048 0 195.584-117.76l-86.016-44.032q-46.080 63.488-114.688 63.488-47.104 0-77.824-28.672t-31.744-74.752q0-13.312 2.048-24.576t9.216-21.504 12.288-16.384 17.408-14.336 20.48-12.288 25.6-10.24 27.648-10.24 31.744-10.24 33.792-10.24q110.592-36.864 158.72-86.016t47.104-143.36q0-102.4-77.824-169.984-76.8-66.56-190.464-66.56h-3.072q-102.4 0-164.864 48.128t-105.472 143.36l-14.336 33.792-130.048 294.912q-33.792 78.848-106.496 126.976t-162.816 48.128q-121.856 0-207.872-86.016t-87.040-208.896 87.040-207.872 207.872-87.040q83.968 0 153.6 44.032t107.52 114.688l52.224-120.832q-56.32-69.632-138.24-109.568t-175.104-38.912q-167.936 0-286.72 118.784t-118.784 286.72z" />
<glyph unicode="&#xe81f;" glyph-name="linkedin" horiz-adv-x="1061" d="M0 837.12q0 51.2 35.84 84.992t93.184 32.768q56.32 0 91.136-32.768 35.84-33.792 35.84-88.064 0-49.152-34.816-81.92-35.84-33.792-94.208-33.792h-1.024q-56.32 0-91.136 33.792t-34.816 84.992zM13.312-58.88v684.032h227.328v-684.032h-227.328zM366.592-58.88h227.328v381.952q0 35.84 8.192 55.296 14.336 34.816 44.032 59.392t72.704 23.552q114.688 0 114.688-154.624v-365.568h227.328v392.192q0 151.552-71.68 230.4t-189.44 77.824q-132.096 0-205.824-113.664v-2.048h-1.024l1.024 2.048v97.28h-227.328q2.048-32.768 2.048-203.776t-2.048-480.256z" />
<glyph unicode="&#xe820;" glyph-name="mail-1" horiz-adv-x="907" d="M593.92 402.944l264.192-273.408h-807.936l265.216 270.336 138.24-130.048zM64.512 766.464h778.24l-389.12-370.688zM644.096 450.048l263.168 247.808v-520.192zM0 177.664v520.192l265.216-248.832z" />
<glyph unicode="&#xe821;" glyph-name="myspace" horiz-adv-x="1112" d="M0 268.8v358.4h143.36v-211.968h824.32v211.968h144.384v-358.4h-1112.064z" />
<glyph unicode="&#xe822;" glyph-name="path" horiz-adv-x="952" d="M0 565.76q4.096 176.128 134.144 284.672 138.24 107.52 342.016 109.568 214.016-4.096 344.064-107.52 63.488-54.272 97.28-130.048t34.816-156.672q-4.096-167.936-128-269.312-130.048-102.4-337.92-104.448v-61.44q-2.048-58.368-34.816-106.496t-81.92-71.68q-33.792-16.384-73.728-16.384-48.128 0-96.256 24.576v177.152q41.984-29.696 78.848-19.456 33.792 14.336 33.792 50.176v491.52h174.080v-306.176q59.392 0 113.664 12.288 81.92 20.48 128 60.416 60.416 57.344 60.416 139.264 0 118.784-98.304 180.224-90.112 52.224-214.016 52.224-130.048-4.096-216.064-56.32-46.080-29.696-70.656-76.8t-25.6-99.328q8.192-107.52 48.128-145.408l-109.568-117.76q-48.128 47.104-76.8 123.904-23.552 79.872-25.6 139.264z" />
<glyph unicode="&#xe823;" glyph-name="paypal" horiz-adv-x="880" d="M789.504 714.24l8.192-4.096q38.912-22.528 61.44-63.488 20.48-38.912 20.48-98.304 0-133.12-112.64-215.040-108.544-81.92-313.344-81.92h-30.72q-16.384 0-32.768-12.288t-20.48-28.672l-36.864-159.744q-12.288-43.008-53.248-43.008h-108.544q-18.432 0-28.672 13.312t-6.144 29.696l6.144 24.576h69.632q16.384 0 32.768 13.312t20.48 29.696l36.864 159.744q10.24 40.96 53.248 40.96h30.72q200.704 0 313.344 81.92 112.64 83.968 112.64 215.040 0 57.344-22.528 98.304zM195.584 185.856q-2.048-16.384-18.432-29.696t-32.768-13.312h-110.592q-18.432 0-27.648 13.312t-5.12 29.696l153.6 661.504q10.24 40.96 53.248 40.96h229.376q79.872 0 129.024-8.192 57.344-12.288 96.256-34.816 36.864-24.576 59.392-63.488 20.48-38.912 20.48-98.304 0-133.12-112.64-215.040-108.544-81.92-311.296-81.92h-32.768q-16.384 0-32.768-12.288t-18.432-28.672zM285.696 568.832q-4.096-16.384 6.144-28.672t26.624-12.288h28.672q88.064 0 137.216 36.864 49.152 34.816 49.152 100.352 0 45.056-30.72 65.536-32.768 20.48-96.256 20.48h-34.816q-43.008 0-53.248-40.96z" />
<glyph unicode="&#xe824;" glyph-name="picasa" horiz-adv-x="942" d="M256 867.84q10.24-12.288 161.792-147.456l-405.504-370.688q-12.288 49.152-12.288 98.304 0 133.12 68.608 245.76t187.392 174.080zM665.6 878.080v-284.672l-335.872 303.104q65.536 22.528 141.312 22.528 100.352 0 194.56-40.96zM737.28 837.12q96.256-65.536 150.528-168.96t54.272-220.16q0-81.92-26.624-155.648h-178.176v544.768zM34.816 273.92q12.288 12.288 67.584 61.44l104.448 94.208v-370.688q-118.784 81.92-172.032 215.040zM278.528 17.92v202.752h604.16q-57.344-102.4-154.624-166.912t-214.016-76.8h-86.016q-86.016 10.24-149.504 40.96z" />
<glyph unicode="&#xe825;" glyph-name="pinterest" horiz-adv-x="797" d="M327.68 284.16q-26.624-133.12-59.392-216.064t-98.304-132.096q-6.144 75.776-7.168 122.88t11.264 112.64 22.528 106.496 26.624 101.376 24.576 101.376q-24.576 53.248-19.456 118.784t49.152 108.544 101.376 20.48q40.96-16.384 45.056-60.416t-13.312-97.28-32.768-105.472-4.096-92.16 64.512-50.176q69.632-14.336 123.904 38.912t75.776 134.144 11.264 166.912-55.296 131.072q-63.488 65.536-154.624 71.68t-166.912-33.792-122.88-119.808-32.768-174.080q4.096-22.528 22.528-53.248t21.504-48.128-17.408-68.608q-149.504 34.816-143.36 235.52 4.096 141.312 107.52 239.616t238.592 114.688q167.936 18.432 296.96-58.368t147.456-224.256q26.624-180.224-67.584-324.608t-258.048-132.096q-22.528 2.048-43.008 9.216t-30.72 13.312-31.744 21.504-31.744 21.504z" />
<glyph unicode="&#xe826;" glyph-name="posterous" horiz-adv-x="680" d="M0 944.64h102.4l8.192-123.904h10.24l5.12 3.072q80.896 136.192 251.904 136.192 133.12 0 218.112-100.352t83.968-260.096q0-95.232-27.648-169.984t-73.728-120.832-103.424-68.608-119.808-23.552q-70.656 0-128 29.696t-89.088 80.896l-2.048 3.072h-11.264l-3.072-7.168v-387.072h-115.712v779.264q0 90.112-6.144 229.376zM121.856 521.728q0-31.744 6.144-56.32 19.456-71.68 75.776-115.712t129.024-44.032q103.424 0 165.888 78.848t62.464 208.896q0 121.856-62.464 198.656t-160.768 76.8q-73.728 0-131.072-46.080t-75.776-120.832q-9.216-33.792-9.216-54.272v-125.952z" />
<glyph unicode="&#xe827;" glyph-name="reddit" horiz-adv-x="1234" d="M0 451.072q0 63.488 51.2 108.544t114.688 45.056 107.52-36.864h5.12q137.216 83.968 343.040 83.968l5.12 4.096 71.68 273.408 247.808-36.864q0-1.024 2.048-1.024 1.024 0 0 1.024 2.048 1.024 12.288 16.384t14.336 18.432q34.816 32.768 83.968 32.768 50.176 0 84.992-32.768t33.792-83.968-33.792-86.016-84.992-35.84q-58.368 0-89.088 39.936t-30.72 98.304q-2.048-1.024-99.328 13.312t-112.64 17.408h-3.072q-2.048-2.048-16.384-54.272t-30.72-111.616-18.432-65.536v-3.072l5.12-4.096q73.728 0 151.552-20.48t133.12-59.392l3.072-2.048q1.024 1.024 2.048 1.024t2.048 1.024q25.6 18.432 36.864 25.6t29.696 13.312 44.032 6.144q69.632 0 118.784-49.152t49.152-119.808q0-48.128-26.624-88.064t-71.68-61.44q0-199.68-266.24-310.272-41.984-18.432-57.344-23.552-32.768-10.24-93.184-19.456t-95.232-9.216q-122.88 0-236.544 35.84-2.048 2.048-73.728 38.912-97.28 52.224-155.648 118.784t-59.392 159.744h-5.12q-33.792 17.408-60.416 51.2l-9.216 12.288q-15.36 27.648-19.456 47.104t-4.096 51.2zM34.816 438.784q0-67.584 58.368-114.688 5.12 60.416 49.152 118.784t103.424 103.424q-37.888 26.624-83.968 26.624-50.176 0-88.064-40.96t-38.912-93.184zM139.264 289.28q0-55.296 31.744-106.496t81.92-87.040 104.448-61.44 107.52-34.816q76.8-14.336 149.504-14.336 125.952 0 238.592 39.936t189.44 125.952h-3.072q30.72 38.912 44.032 70.656t13.312 73.728q0 55.296-26.624 105.472t-71.68 86.016-94.208 62.464-102.4 38.912q-87.040 23.552-185.344 23.552-75.776 0-154.624-18.432t-153.6-55.296-121.856-101.376-47.104-147.456zM329.728 364.032q0 37.888 23.552 61.44t60.416 22.528 63.488-22.528 25.6-61.44q0-36.864-25.6-61.44t-63.488-24.576-60.416 24.576-23.552 61.44zM366.592 196.096h45.056q25.6-46.080 81.92-69.632t113.664-24.576q59.392 0 112.64 24.576t86.016 69.632h41.984q-25.6-63.488-95.232-98.304t-145.408-34.816q-73.728 0-144.384 35.84t-96.256 97.28zM710.656 364.032q0 38.912 23.552 61.44t62.464 22.528q34.816 0 59.392-24.576t24.576-59.392-24.576-60.416-59.392-25.6q-37.888 0-61.44 24.576t-24.576 61.44zM971.776 843.264q0-35.84 25.6-61.44t61.44-25.6q36.864 0 60.416 25.6t23.552 61.44q0 34.816-24.576 59.392t-59.392 24.576-60.416-24.576-26.624-59.392zM986.112 555.52q56.32-36.864 97.28-94.208t57.344-122.88q60.416 44.032 60.416 98.304 0 59.392-35.84 102.4t-95.232 43.008q-46.080 0-83.968-26.624z" />
<glyph unicode="&#xe828;" glyph-name="rss" horiz-adv-x="804" d="M219.136 192q0-46.080-31.744-77.824t-77.824-31.744-77.824 31.744-31.744 77.824 31.744 77.824 77.824 31.744 77.824-31.744 31.744-77.824zM512 121.344q1.024-15.36-9.216-26.624-11.264-12.288-27.648-12.288h-76.8q-14.336 0-24.576 9.216t-11.264 23.552q-12.288 131.072-105.472 224.256t-224.256 105.472q-14.336 1.024-23.552 11.264t-9.216 24.576v76.8q0 16.384 12.288 26.624 9.216 10.24 24.576 10.24h3.072q91.136-7.168 174.080-46.080t148.48-103.424q64.512-64.512 103.424-148.48t46.080-175.104zM804.864 120.32q1.024-15.36-10.24-26.624-10.24-11.264-26.624-11.264h-81.92q-14.336 0-25.6 10.24t-11.264 23.552q-6.144 122.88-57.344 233.472t-132.096 192.512-192.512 132.096-232.448 58.368q-14.336 0-24.576 11.264t-10.24 24.576v81.92q0 15.36 11.264 26.624 10.24 10.24 25.6 10.24h1.024q150.528-8.192 286.72-68.608t243.712-167.936q106.496-106.496 167.936-243.712t68.608-286.72z" />
<glyph unicode="&#xe829;" glyph-name="share" horiz-adv-x="819" d="M665.6 294.4q63.488 0 108.544-44.032t45.056-109.568q0-63.488-45.056-108.544t-108.544-45.056-108.544 45.056-45.056 108.544q0 6.144 1.024 14.336t1.024 12.288l-266.24 159.744q-43.008-32.768-94.208-32.768-63.488 0-108.544 45.056t-45.056 108.544 45.056 108.544 108.544 45.056q55.296 0 94.208-30.72l266.24 159.744q0 4.096-1.024 12.288t-1.024 12.288q0 63.488 45.056 108.544t108.544 45.056 108.544-44.032 45.056-109.568q0-63.488-45.056-108.544t-108.544-45.056q-53.248 0-92.16 32.768l-268.288-159.744q2.048-8.192 2.048-26.624 0-16.384-2.048-24.576l268.288-159.744q36.864 30.72 92.16 30.72z" />
<glyph unicode="&#xe82a;" glyph-name="skype" horiz-adv-x="1010" d="M0 680.448q0 115.712 81.92 197.632t197.632 81.92q79.872 0 148.48-43.008 36.864 7.168 81.92 7.168 199.68 0 340.992-141.312t141.312-339.968q0-50.176-11.264-103.424 28.672-60.416 28.672-123.904 0-115.712-81.92-197.632t-197.632-81.92q-69.632 0-132.096 32.768-46.080-8.192-88.064-8.192-198.656 0-339.968 141.312t-141.312 340.992q0 48.128 9.216 96.256-37.888 66.56-37.888 141.312zM226.304 305.664q0-41.984 30.72-87.040 72.704-106.496 251.904-106.496 51.2 0 99.328 11.264t89.088 34.816 67.584 65.536 25.6 96.256q0 59.392-29.696 100.352t-75.776 59.392-97.28 33.792-98.304 23.552-74.752 26.624-30.72 45.056q0 33.792 37.888 50.176t75.776 16.384q40.96 0 67.584-12.288t38.912-30.72 21.504-35.84 25.6-30.72 39.936-13.312q27.648 0 49.152 19.456t20.48 47.104-15.36 55.296q-30.72 56.32-97.28 81.92t-141.312 25.6q-47.104 0-91.136-9.216t-84.992-29.696-65.536-57.344-25.6-89.088q0-67.584 40.96-108.544t99.328-58.368 117.76-29.696 99.328-33.792 40.96-60.416q0-29.696-23.552-50.176t-51.2-27.648-58.368-7.168q-38.912 0-65.536 11.264t-39.936 27.648-22.528 35.84-18.432 35.84-23.552 27.648-37.888 10.24q-28.672 0-49.152-17.408t-21.504-46.080z" />
<glyph unicode="&#xe82b;" glyph-name="soundcloud" horiz-adv-x="1073" d="M0 257.536q0-20.48 14.336-30.72t30.72-7.168 22.528 11.264 6.144 26.624v144.384q0 15.36-11.264 26.624t-25.6 10.24q-15.36 0-25.6-10.24t-11.264-26.624v-144.384zM114.688 195.072q0-14.336 10.24-21.504t26.624-7.168 26.624 7.168 10.24 21.504v337.92q0 15.36-10.24 25.6t-26.624 11.264q-15.36 0-25.6-11.264t-11.264-25.6v-337.92zM229.376 179.712q0-14.336 10.24-22.528t27.648-7.168q15.36 0 25.6 7.168t10.24 22.528v308.224q0 15.36-10.24 26.624t-25.6 10.24q-15.36 0-26.624-10.24t-11.264-26.624v-308.224zM344.064 177.664q0-27.648 36.864-27.648t37.888 27.648v499.712q0 41.984-25.6 48.128-16.384 4.096-32.768-10.24t-16.384-37.888v-499.712zM460.8 163.328v543.744q0 25.6 16.384 30.72 32.768 8.192 66.56 8.192 75.776 0 142.336-35.84t106.496-98.304 47.104-137.216q30.72 13.312 64.512 13.312 70.656 0 119.808-50.176t50.176-118.784q0-69.632-50.176-118.784t-118.784-50.176l-435.2 1.024q-4.096 1.024-6.144 5.12t-3.072 7.168z" />
<glyph unicode="&#xe82c;" glyph-name="spotify" d="M0 448q0 139.264 68.608 257.024t186.368 186.368 257.024 68.608 257.024-68.608 186.368-186.368 68.608-257.024q0-103.424-38.912-196.608t-109.568-163.84q-61.44 74.752-148.48 116.736t-187.392 41.984q-109.568 0-203.776-50.176t-154.624-138.24q-84.992 72.704-133.12 174.080t-48.128 216.064zM167.936 595.456q0-17.408 12.288-29.696t30.72-13.312q6.144 0 9.216 1.024 147.456 59.392 305.152 59.392t305.152-59.392q1.024 0 4.096 0t5.12-1.024q17.408 0 30.72 13.312t12.288 29.696q0 25.6-23.552 37.888-162.816 64.512-333.824 64.512-174.080 0-336.896-65.536-20.48-13.312-20.48-36.864zM215.040 442.88l6.144-16.384q8.192-13.312 23.552-13.312 3.072 0 9.216 2.048 130.048 56.32 271.36 56.32 142.336 0 273.408-57.344 4.096-2.048 7.168-2.048 15.36 0 23.552 13.312l5.12 17.408q0 13.312-10.24 21.504-141.312 63.488-299.008 63.488-156.672 0-300.032-63.488-10.24-10.24-10.24-21.504zM264.192 295.424q10.24-25.6 31.744-16.384 110.592 52.224 229.376 52.224 114.688 0 224.256-49.152 24.576-13.312 35.84 12.288 5.12 13.312 0 23.552t-14.336 15.36q-108.544 54.272-245.76 54.272-131.072 0-249.856-56.32-19.456-10.24-11.264-35.84zM326.656-29.184q37.888 49.152 94.208 77.824t118.784 28.672q116.736 0 197.632-88.064-106.496-53.248-225.28-53.248-96.256 0-185.344 34.816z" />
<glyph unicode="&#xe82d;" glyph-name="stackoverflow" horiz-adv-x="803" d="M0-64v427.008l77.824-1.024-3.072-343.040h513.024v342.016h80.896v-424.96h-668.672zM125.952 160.256h401.408v-84.992h-401.408v84.992zM126.976 226.816l8.192 87.040 402.432-38.912-8.192-87.040zM148.48 403.968l23.552 83.968 389.12-109.568-24.576-83.968zM221.184 609.792l45.056 74.752 346.112-208.896-46.080-74.752zM392.192 819.712l70.656 51.2 235.52-328.704-71.68-51.2zM650.24 945.664l86.016 14.336 66.56-398.336-86.016-14.336z" />
<glyph unicode="&#xe82e;" glyph-name="steam" horiz-adv-x="1343" d="M0 570.88q0 56.32 39.936 96.256t95.232 39.936q48.128 0 86.016-29.696t47.104-76.8l514.048-206.848q32.768 19.456 69.632 19.456 2.048 0 7.168 0t7.168-1.024l112.64 162.816q1.024 74.752 54.272 128t128 52.224q75.776 0 129.024-53.248t53.248-129.024-53.248-129.024-129.024-53.248l-174.080-126.976q-5.12-52.224-44.032-87.040t-91.136-35.84q-49.152 0-86.016 30.72t-47.104 76.8l-514.048 205.824q-32.768-19.456-69.632-19.456-56.32 0-95.232 39.936t-39.936 96.256zM35.84 570.88q0-40.96 29.696-69.632t69.632-29.696q9.216 0 21.504 2.048l-41.984 16.384v1.024q-28.672 13.312-40.96 43.008-6.144 14.336-6.144 28.672 0 15.36 6.144 30.72 12.288 30.72 40.96 43.008 15.36 7.168 31.744 6.144 13.312 0 27.648-5.12v1.024l50.176-20.48q-29.696 53.248-89.088 53.248-40.96 0-69.632-28.672t-29.696-71.68zM762.88 229.888q29.696-53.248 89.088-53.248 40.96 0 70.656 29.696t29.696 70.656-28.672 70.656-71.68 28.672q-14.336 0-21.504-2.048l40.96-16.384q30.72-12.288 44.032-43.008 7.168-15.36 7.168-30.72 0-14.336-6.144-29.696-12.288-31.744-43.008-44.032-15.36-6.144-30.72-6.144-14.336 0-29.696 6.144-8.192 3.072-24.576 10.24t-25.6 9.216zM1039.36 572.928q0-50.176 35.84-86.016t86.016-35.84q51.2 0 87.040 35.84t35.84 86.016-35.84 86.016-87.040 35.84q-50.176 0-86.016-35.84t-35.84-86.016zM1064.96 573.952q0-40.96 28.672-69.632t68.608-28.672 68.608 28.672 28.672 69.632q0 39.936-28.672 68.608t-68.608 28.672q-40.96 0-68.608-28.672t-28.672-68.608z" />
<glyph unicode="&#xe82f;" glyph-name="mix" d="M204.8 699.733v-646.4c0-57.6-44.8-100.267-102.4-100.267s-102.4 44.8-102.4 100.267v906.667h1024v-569.6c0-55.467-46.933-100.267-102.4-100.267-57.6 0-104.533 44.8-104.533 100.267v51.2c0 57.6-44.8 100.267-102.4 100.267-48.512 0-90.496-34.261-100.267-80v-163.2c0-57.6-46.933-100.267-102.4-100.267-57.6 0-102.4 44.8-102.4 100.267v394.667c0 55.467-46.933 100.267-102.4 100.267-0.106 0-0.231 0.001-0.356 0.001-53.55 0-97.5-41.106-102.017-93.485l-0.027-0.382z" />
<glyph unicode="&#xe830;" glyph-name="tumblr" horiz-adv-x="631" d="M0 540.16v145.408q61.44 20.48 103.424 56.32 41.984 33.792 68.608 88.064 26.624 52.224 35.84 130.048h146.432v-259.072h242.688v-160.768h-242.688v-262.144q0-88.064 9.216-114.688 9.216-24.576 34.816-39.936 34.816-20.48 77.824-20.48 78.848 0 154.624 50.176v-160.768q-64.512-31.744-118.784-44.032-53.248-12.288-114.688-12.288-69.632 0-124.928 17.408-56.32 19.456-91.136 51.2-36.864 31.744-53.248 69.632-14.336 34.816-14.336 107.52v358.4h-113.664z" />
<glyph unicode="&#xe831;" glyph-name="twitter" horiz-adv-x="1260" d="M0 51.712q30.72-3.072 61.44-3.072 180.224 0 321.536 110.592-83.968 1.024-150.528 51.2t-91.136 128q20.48-4.096 48.128-4.096 35.84 0 68.608 9.216-90.112 17.408-148.48 89.088t-59.392 163.84v3.072q54.272-30.72 117.76-31.744-53.248 34.816-83.968 92.16t-31.744 122.88q0 69.632 35.84 130.048 96.256-119.808 235.52-190.464t296.96-79.872q-7.168 33.792-7.168 59.392 0 106.496 75.776 182.272t183.296 75.776q111.616 0 188.416-81.92 89.088 18.432 163.84 63.488-28.672-93.184-112.64-143.36 74.752 9.216 147.456 40.96-49.152-76.8-128-134.144v-33.792q0-103.424-29.696-206.848t-92.16-198.656-148.48-168.96-205.824-117.76-259.072-43.008q-214.016 0-396.288 115.712z" />
<glyph unicode="&#xe832;" glyph-name="vimeo" horiz-adv-x="1174" d="M0 681.472q56.32 66.56 112.64 118.784t98.304 79.872 73.728 44.032 49.152 21.504l17.408 4.096q12.288 2.048 24.576 2.048 19.456 0 35.84-6.144 26.624-10.24 44.032-34.816t29.696-56.32 21.504-73.728 15.36-79.872 14.336-80.896 14.336-72.704q32.768-128 53.248-181.248t41.984-54.272q24.576 0 68.608 57.344t95.232 154.624q26.624 49.152 26.624 93.184 0 13.312-2.048 23.552-9.216 53.248-52.224 66.56-11.264 4.096-24.576 4.096-35.84 0-84.992-26.624 22.528 133.12 137.216 214.016 87.040 61.44 178.176 61.44 12.288 0 24.576-1.024 104.448-8.192 142.336-92.16 18.432-38.912 18.432-90.112 0-29.696-6.144-62.464-18.432-104.448-70.656-212.992t-115.712-191.488-136.192-158.72-125.952-120.832-93.184-69.632q-43.008-24.576-79.872-24.576t-71.68 21.504-57.344 49.152-38.912 58.368q-18.432 38.912-99.328 306.176t-99.328 286.72q-1.024 2.048-4.096 4.096t-13.312 5.12-24.576 0-37.888-14.336-51.2-33.792z" />
<glyph unicode="&#xe833;" glyph-name="windows" horiz-adv-x="950" d="M390.144 385.536v-372.736l-390.144 54.272v318.464h390.144zM390.144 809.472v-375.808h-390.144v322.56zM951.296 385.536v-449.536l-519.168 71.68v377.856h519.168zM951.296 887.296v-453.632h-519.168v381.952z" />
<glyph unicode="&#xe834;" glyph-name="wordpress" horiz-adv-x="1019" d="M514.048 960c-200.704 0-389.12-118.784-476.16-307.2h243.712v-26.624c-74.752 9.216-68.608-30.72-57.344-71.68l159.744-400.384 117.76 275.456-54.272 129.024c-19.456 34.816-20.48 72.704-100.352 69.632l1.024 24.576 357.376-1.024v-27.648c-41.984-3.072-92.16 10.24-65.536-75.776l144.384-378.88 78.848 221.184c26.624 93.184 2.048 182.272-28.672 270.336-17.408 58.368-9.216 107.52 67.584 126.976-116.736 119.808-254.976 172.032-388.096 172.032zM1000.448 609.792l-232.448-604.16c64.512 55.296 130.048 75.776 209.92 229.376 53.248 126.976 48.128 244.736 22.528 374.784zM13.312 599.552c-22.528-178.176-20.48-230.4 35.84-375.808 72.704-139.264 129.024-168.96 209.92-223.232l-245.76 599.040zM523.264 373.248l-172.032-413.696c120.832-34.816 228.352-30.72 327.68 8.192l-155.648 405.504z" />
<glyph unicode="&#xe835;" glyph-name="yahoo" horiz-adv-x="1408" d="M0 745.984l6.144-19.456q4.096-6.144 8.192-10.24t5.12-5.12l2.048-2.048 19.456-10.24h113.664l293.888-352.256q11.264-12.288 11.264-25.6v-196.608q0-8.192-2.048-12.288t-6.144-5.12h-3.072q-114.688 0-145.408-3.072-10.24 0-10.24-9.216v-56.32h528.384v58.368q0 3.072-2.048 5.12t-5.12 2.048h-149.504q-9.216 0-9.216 15.36v206.848q-1.024 3.072 2.048 7.168t5.12 7.168l3.072 3.072q11.264 11.264 270.336 254.976h136.192q9.216 0 18.432 7.168l17.408 19.456q6.144 7.168 6.144 18.432v14.336q-1.024 3.072-3.072 5.12t-3.072 1.024h-448.512l-7.168-6.144q-1.024-6.144 2.048-12.288t5.12-10.24l2.048-4.096 23.552-23.552 18.432-7.168h117.76l-211.968-199.68-233.472 297.984h41.984q13.312-1.024 22.528 4.096l69.632 21.504q1.024 0 3.072 1.024t5.12 5.12 2.048 9.216v14.336q0 3.072-2.048 5.12t-4.096 2.048h-503.808q-8.192-1.024-10.24-7.168v-8.192zM1218.56 857.6l189.44-7.168-84.992-580.608-62.464 3.072zM1231.872 76.288l4.096 112.64 112.64-4.096-4.096-112.64z" />
<glyph unicode="&#xe836;" glyph-name="youtube" d="M731.136 448q0 21.504-16.384 30.72l-292.864 183.296q-17.408 11.264-36.864 1.024t-19.456-31.744v-366.592q0-21.504 19.456-31.744 9.216-4.096 17.408-4.096 11.264 0 19.456 5.12l292.864 183.296q16.384 9.216 16.384 30.72zM1024 448q0-55.296-1.024-86.016t-4.096-77.824-13.312-83.968q-9.216-41.984-38.912-70.656t-71.68-32.768q-125.952-14.336-382.976-14.336t-382.976 14.336q-40.96 4.096-71.68 32.768t-39.936 70.656q-7.168 36.864-12.288 83.968t-4.096 77.824-1.024 86.016 1.024 86.016 4.096 77.824 13.312 83.968q9.216 41.984 38.912 70.656t71.68 32.768q125.952 14.336 382.976 14.336t382.976-14.336q40.96-4.096 71.68-32.768t39.936-70.656q8.192-36.864 12.288-83.968t4.096-77.824 1.024-86.016z" />
<glyph unicode="&#xe837;" glyph-name="vk" horiz-adv-x="1249" d="M0 759.296q10.24 8.192 25.6 12.288 14.336 4.096 25.6 4.096h9.216q10.24 0 24.576-1.024 22.528-1.024 32.768-1.024 6.144 0 38.912 2.048 16.384 1.024 29.696 1.024t23.552-1.024q20.48-2.048 32.768-8.192 6.144-3.072 13.312-13.312t12.288-19.456 11.264-25.6 10.24-22.528q38.912-83.968 96.256-166.912 2.048-3.072 7.168-11.264t9.216-12.288 9.216-12.288 10.24-11.264 11.264-8.192 11.264-6.144 12.288 0q28.672 5.12 31.744 119.808 1.024 19.456 1.024 35.84 0 75.776-15.36 104.448-6.144 11.264-15.36 18.432t-25.6 12.288-23.552 10.24q14.336 28.672 51.2 37.888t98.304 9.216h54.272t26.624 0 27.648-3.072l22.528-6.144t20.48-9.216 12.288-14.336q9.216-18.432 11.264-43.008 0-7.168 1.024-14.336 0-20.48-3.072-53.248-4.096-43.008-4.096-53.248-3.072-23.552-3.072-47.104 0-18.432 2.048-38.912 4.096-45.056 30.72-62.464 9.216 1.024 17.408 4.096t15.36 11.264 11.264 12.288 13.312 16.384 10.24 14.336q48.128 63.488 96.256 166.912l9.216 23.552t12.288 26.624 12.288 20.48 15.36 13.312q16.384 7.168 38.912 7.168h9.216q20.48 0 47.104-2.048 32.768-2.048 48.128-2.048 9.216 0 28.672 1.024t32.768 2.048 30.72-1.024 25.6-6.144 14.336-13.312q3.072-6.144 3.072-13.312 0-29.696-35.84-89.088-17.408-29.696-34.816-53.248t-47.104-59.392-37.888-48.128q-2.048-2.048-14.336-18.432t-17.408-24.576-12.288-22.528-5.12-27.648q0-8.192 3.072-15.36t10.24-15.36 10.24-12.288 13.312-13.312 12.288-11.264q72.704-66.56 114.688-119.808 40.96-53.248 40.96-76.8 0-33.792-52.224-41.984-26.624-4.096-54.272-4.096-21.504 0-44.032 3.072-20.48 2.048-37.888 2.048-26.624 0-46.080-5.12h-6.144q-67.584 11.264-142.336 96.256-4.096 4.096-17.408 21.504t-22.528 25.6-23.552 17.408-27.648 6.144q-23.552-4.096-30.72-29.696t-9.216-60.416-10.24-50.176q-13.312-24.576-80.896-24.576-28.672 0-67.584 4.096-79.872 8.192-144.384 40.96t-103.424 69.632-82.944 94.208q-106.496 136.192-201.728 329.728-3.072 6.144-11.264 23.552t-12.288 25.6-9.216 24.576-8.192 28.672-3.072 26.624z" />
<glyph unicode="&#xe838;" glyph-name="grooveshark" d="M0 448q0 139.264 68.608 257.024t186.368 186.368 257.024 68.608 257.024-68.608 186.368-186.368 68.608-257.024-68.608-257.024-186.368-186.368-257.024-68.608-257.024 68.608-186.368 186.368-68.608 257.024zM132.096 448q0-66.56 36.864-78.848 5.12-2.048 17.408-4.096 43.008-1.024 87.040 40.96 41.984 36.864 59.392 92.16 25.6 78.848 10.24 204.8-2.048 12.288-2.048 17.408-3.072 6.144 0 9.216 1.024 3.072 13.312-1.024 38.912-10.24 79.872-29.696 47.104-21.504 104.448-71.68 46.080-39.936 89.088-91.136 33.792-39.936 81.92-106.496 41.984-58.368 90.112-78.848 29.696-10.24 49.152-7.168t29.696 20.48 15.36 37.888 4.096 46.080q0 49.152-12.288 98.304-3.072 12.288-8.192 28.672-14.336 44.032-41.984 86.016-53.248 80.896-138.24 126.976t-182.272 46.080q-67.584 0-128-22.528-81.92-28.672-143.36-91.136t-91.136-145.408q-1.024-5.12-4.096-14.336t-5.12-14.336q-12.288-51.2-11.264-98.304z" />
<glyph unicode="&#xe839;" glyph-name="star-empty" horiz-adv-x="950" d="M649.216 386.56l175.104 168.96-240.64 35.84-108.544 218.112-107.52-218.112-241.664-35.84 175.104-168.96-41.984-240.64 216.064 113.664 216.064-113.664zM951.296 590.336q0-12.288-15.36-27.648l-207.872-201.728 49.152-285.696q1.024-4.096 1.024-12.288 0-28.672-23.552-28.672-10.24 0-22.528 7.168l-257.024 135.168-256-135.168q-13.312-7.168-23.552-7.168-11.264 0-17.408 9.216t-6.144 19.456q0 4.096 1.024 12.288l49.152 285.696-207.872 201.728q-14.336 15.36-14.336 27.648 0 21.504 31.744 26.624l286.72 40.96 129.024 260.096q11.264 23.552 27.648 23.552t28.672-23.552l128-260.096 286.72-40.96q32.768-5.12 32.768-26.624z" />
<glyph unicode="&#xe83a;" glyph-name="star-half" horiz-adv-x="950" d="M677.888 413.184l146.432 142.336-202.752 29.696-37.888 6.144-17.408 34.816-91.136 183.296v-549.888l33.792-17.408 182.272-96.256-34.816 202.752-7.168 37.888zM935.936 562.688l-206.848-201.728 48.128-285.696q3.072-19.456-3.072-29.696t-19.456-11.264q-9.216 0-22.528 7.168l-257.024 135.168-256-135.168q-13.312-7.168-23.552-7.168-12.288 0-19.456 11.264t-3.072 29.696l49.152 285.696-207.872 201.728q-18.432 18.432-13.312 33.792t30.72 20.48l286.72 40.96 129.024 260.096q11.264 23.552 27.648 23.552t28.672-23.552l128-260.096 286.72-40.96q25.6-4.096 30.72-20.48t-13.312-33.792z" />
<glyph unicode="&#xe83b;" glyph-name="comments" horiz-adv-x="1331" d="M0 847.36c0 55.296 70.656 112.64 125.952 112.64h785.408c55.296 0 112.64-59.392 112.64-114.688v-387.072c0-55.296-39.936-112.64-95.232-112.64h-416.768l-307.2-204.8v168.96c0 26.624-17.408 35.84-44.032 35.84h-56.32c-55.296 0-104.448 57.344-104.448 112.64v389.12zM1126.4 857.6v-501.76c0-55.296-39.936-112.64-95.232-112.64h-309.248l302.080-307.2v204.8h212.992c54.272 0 94.208 57.344 94.208 111.616v519.168c0 54.272-39.936 86.016-94.208 86.016h-110.592z" />
<glyph unicode="&#xe83c;" glyph-name="close" horiz-adv-x="702" d="M0 181.76q0 36.864 26.624 63.488l199.68 199.68-199.68 200.704q-26.624 25.6-26.624 62.464t26.624 62.464 62.464 25.6 62.464-25.6l200.704-200.704 199.68 200.704q25.6 25.6 62.464 25.6t62.464-25.6 25.6-62.464-25.6-62.464l-199.68-200.704 199.68-199.68q25.6-26.624 25.6-63.488t-25.6-62.464-62.464-25.6-62.464 25.6l-199.68 199.68-200.704-199.68q-25.6-25.6-62.464-25.6t-62.464 25.6q-26.624 26.624-26.624 62.464z" />
<glyph unicode="&#xe83d;" glyph-name="read-down" horiz-adv-x="887" d="M64.512 673.28l378.88-364.544 380.928 364.544q22.528 26.624 49.152 0 26.624-22.528 0-49.152l-405.504-401.408q-22.528-22.528-49.152 0l-405.504 401.408q-26.624 26.624 0 49.152 24.576 24.576 51.2 0z" />
<glyph unicode="&#xe83e;" glyph-name="mobile" horiz-adv-x="878" d="M877.979 195.343c-0.123 18.103-14.766 32.748-32.858 32.874h-812.23c-18.103-0.123-32.748-14.766-32.871-32.858v-20.568c0.123-18.103 14.766-32.748 32.86-32.871h812.23c18.103 0.123 32.748 14.766 32.874 32.858v20.568zM877.979 458.311c-0.146 18.084-14.784 32.706-32.86 32.826h-812.23c-18.103-0.123-32.748-14.766-32.871-32.858v-20.522c0.123-18.103 14.766-32.748 32.86-32.871h812.23c18.103 0.123 32.748 14.766 32.874 32.858v20.522zM877.979 721.275c-0.146 18.084-14.784 32.703-32.86 32.826h-812.23c-18.089-0.122-32.723-14.742-32.871-32.813v-20.57c0.123-18.103 14.766-32.748 32.86-32.871h812.23c18.103 0.123 32.748 14.766 32.874 32.86v20.568z" />
<glyph unicode="&#xe900;" glyph-name="close-mobile" d="M59.328-44.256c4.608 0 9.184 1.856 12.512 5.152l440.32 440.32 440.096-440.096c3.296-3.296 7.872-5.152 12.48-5.152s9.184 1.856 12.512 5.152l21.568 21.6c3.328 3.328 5.152 7.904 5.152 12.512 0 4.576-1.824 9.184-5.152 12.48l-440.064 440.096 440.32 440.32c3.296 3.296 5.152 7.904 5.152 12.48 0 4.608-1.856 9.184-5.152 12.512l-21.824 21.824c-3.328 3.328-7.904 5.152-12.512 5.152s-9.184-1.824-12.48-5.152l-440.352-440.32-440.32 440.32c-3.296 3.328-7.904 5.152-12.48 5.152-4.608 0-9.184-1.824-12.512-5.152l-21.6-21.6c-3.296-3.296-5.12-7.904-5.12-12.48 0-4.608 1.824-9.184 5.12-12.512l440.32-440.32-440.32-440.32c-3.296-3.296-5.12-7.904-5.12-12.48 0-4.608 1.824-9.184 5.12-12.512l21.856-21.824c3.296-3.296 7.904-5.152 12.48-5.152z" />
<glyph unicode="&#xe901;" glyph-name="modal-back" d="M768.384 902.4c-0.125 6.316-2.69 12.009-6.788 16.196l-32.956 35.324c-3.663 4.324-9.097 7.051-15.168 7.051s-11.505-2.727-15.144-7.022l-487.128-489.437c-4.088-4.193-6.609-9.93-6.609-16.256s2.521-12.063 6.614-16.261l487.291-489.595c3.652-4.345 9.090-7.087 15.168-7.087s11.516 2.742 15.143 7.056l32.985 35.358c4.088 4.193 6.609 9.93 6.609 16.256s-2.521 12.063-6.614 16.261l-437.243 437.755 437.056 438.080c4.011 4.28 6.549 9.983 6.783 16.274z" />
<glyph unicode="&#xe902;" glyph-name="modal-close" d="M1024-6.912c-0.038 6.495-2.671 12.369-6.913 16.641l-438.399 438.271 438.912 438.208c4.242 4.278 6.864 10.169 6.864 16.672s-2.621 12.394-6.865 16.674l-33.406 33.342c-4.281 4.261-10.185 6.896-16.704 6.896s-12.423-2.634-16.705-6.896l-438.783-438.207-438.848 438.208c-4.281 4.261-10.185 6.896-16.704 6.896s-12.423-2.634-16.705-6.896l-33.343-33.343c-4.242-4.278-6.864-10.169-6.864-16.672s2.621-12.394 6.865-16.674l438.718-438.206-438.72-438.272c-4.258-4.271-6.89-10.164-6.89-16.672s2.632-12.401 6.891-16.673l33.407-33.343c4.288-4.246 10.19-6.869 16.704-6.869s12.416 2.623 16.706 6.871l438.782 438.206 438.72-438.208c4.288-4.246 10.19-6.869 16.704-6.869s12.416 2.623 16.706 6.871l33.406 33.342c4.005 4.241 6.468 9.977 6.468 16.288 0 0.146-0.001 0.292-0.004 0.438z" />
<glyph unicode="&#xe903;" glyph-name="category" horiz-adv-x="1946" d="M1925.736 443.17c0.004 0.332 0.006 0.724 0.006 1.112 0 25.302-9.465 48.391-25.055 65.918l-397.973 416.882c-15.711 15.752-37.397 25.535-61.37 25.665-23.687-0.225-45.024-10.002-60.402-25.652l-31.716-37.957c-15.824-15.396-25.641-36.896-25.641-60.69s9.817-45.295 25.623-60.671l213.291-220.236h-1484.452c-37.902-2.145-67.829-33.405-67.829-71.654 0-5.17 0.546-10.213 1.586-15.071l-0.085-26.2c-0.955-4.389-1.501-9.432-1.501-14.601 0-38.249 29.923-69.509 67.639-71.646l1484.442-0.009-216.393-216.393c-15.821-15.643-25.62-37.349-25.62-61.345s9.797-45.7 25.611-61.337l31.712-37.953c15.605-15.204 36.864-24.673 60.333-24.96 23.917 0.188 45.527 9.665 61.482 24.989l401.352 404.174c15.508 17.817 24.963 41.261 24.963 66.912 0 0.255-0.001 0.508-0.003 0.763z" />
<glyph unicode="&#xe904;" glyph-name="header-template" horiz-adv-x="5916" d="M5852.729 794.908l-842.638-858.908-681.188 688.356-688.014-687.787-1.479-0.569-681.188 688.128-681.87-688.128h-0.796l-684.828 688.356-680.505-688.356h-1.707l-848.441 855.381 167.481 167.822 681.529-684.715 681.188 684.828 0.569-0.569v0.569l684.828-684.828 681.301 684.26 1.252 0.455 681.301-684.828 688.356 684.828 0.569-0.569 0.569 0.569 681.188-684.828 678.684 684.828z" />
<glyph unicode="&#xe905;" glyph-name="home" horiz-adv-x="951" d="M804.571 393.143v-274.286c0-20-16.571-36.571-36.571-36.571h-219.429v219.429h-146.286v-219.429h-219.429c-20 0-36.571 16.571-36.571 36.571v274.286c0 1.143 0.571 2.286 0.571 3.429l328.571 270.857 328.571-270.857c0.571-1.143 0.571-2.286 0.571-3.429zM932 432.571l-35.429-42.286c-2.857-3.429-7.429-5.714-12-6.286h-1.714c-4.571 0-8.571 1.143-12 4l-395.429 329.714-395.429-329.714c-4-2.857-8.571-4.571-13.714-4-4.571 0.571-9.143 2.857-12 6.286l-35.429 42.286c-6.286 7.429-5.143 19.429 2.286 25.714l410.857 342.286c24 20 62.857 20 86.857 0l139.429-116.571v111.429c0 10.286 8 18.286 18.286 18.286h109.714c10.286 0 18.286-8 18.286-18.286v-233.143l125.143-104c7.429-6.286 8.571-18.286 2.286-25.714z" />
<glyph unicode="&#xe906;" glyph-name="line" d="M826.24 539.52c14.848 0 26.88-12.16 26.88-26.88s-12.032-26.88-26.88-26.88h-74.88v-48h74.88c14.848 0 26.88-12.032 26.88-26.88 0-14.72-12.032-26.88-26.88-26.88h-101.76c-14.72 0-26.752 12.16-26.752 26.88v203.52c0 14.72 12.032 26.88 26.88 26.88h101.76c14.72 0 26.752-12.16 26.752-26.88 0-14.848-12.032-26.88-26.88-26.88h-74.88v-48h74.88zM661.76 410.88c0-11.52-7.424-21.76-18.432-25.472-2.752-0.896-5.632-1.28-8.512-1.28-8.96 0-16.64 3.84-21.76 10.688l-104.256 141.504v-125.44c0-14.72-11.904-26.88-26.88-26.88-14.72 0-26.688 12.16-26.688 26.88v203.52c0 11.52 7.36 21.76 18.304 25.408 2.56 0.96 5.76 1.408 8.32 1.408 8.32 0 16-4.48 21.12-10.88l105.024-142.016v126.080c0 14.72 12.032 26.88 26.88 26.88 14.72 0 26.88-12.16 26.88-26.88v-203.52zM416.768 410.88c0-14.72-12.032-26.88-26.88-26.88-14.72 0-26.752 12.16-26.752 26.88v203.52c0 14.72 12.032 26.88 26.88 26.88 14.72 0 26.752-12.16 26.752-26.88v-203.52zM311.552 384h-101.76c-14.72 0-26.88 12.16-26.88 26.88v203.52c0 14.72 12.16 26.88 26.88 26.88 14.848 0 26.88-12.16 26.88-26.88v-176.64h74.88c14.848 0 26.88-12.032 26.88-26.88 0-14.72-12.032-26.88-26.88-26.88zM1024 520.32c0 229.12-229.76 415.616-512 415.616s-512-186.496-512-415.616c0-205.312 182.144-377.344 428.16-409.92 16.64-3.584 39.36-11.008 45.12-25.216 5.12-12.8 3.392-32.64 1.664-46.080l-7.040-43.52c-1.92-12.8-10.24-50.56 44.8-27.52s295.040 174.080 402.56 297.6c73.536 80.576 108.736 163.136 108.736 254.656z" />
<glyph unicode="&#xe907;" glyph-name="viber" d="M887.936 860.16c-25.472 23.424-128.256 98.112-357.376 99.2 0 0-270.080 16.192-401.728-104.576-73.28-73.344-99.072-180.48-101.76-313.6-2.752-132.864-6.272-382.080 234.048-449.664h0.192l-0.192-103.168s-1.472-41.728 25.984-50.24c33.28-10.24 52.736 21.504 84.48 55.68 17.472 18.752 41.472 46.336 59.648 67.456 164.288-13.824 290.688 17.728 305.024 22.4 33.152 10.88 220.8 34.816 251.392 284.032 31.488 256.96-15.232 419.392-99.712 492.672zM915.776 386.048c-26.24-208-178.56-221.248-206.080-230.208-12.16-3.84-123.52-31.488-263.040-22.4 0 0-104.32-125.44-136.32-158.080-5.12-5.12-11.52-7.040-15.36-6.144-5.76 1.28-7.040 7.68-7.040 17.28l0.64 170.88c-0.64 0 0 0 0 0-203.52 56.96-191.36 268.8-188.8 380.16 1.92 110.72 23.040 201.6 85.12 263.040 111.424 101.184 341.184 85.824 341.184 85.824 193.792-0.64 286.72-59.072 308.16-78.72 71.424-61.12 107.84-207.552 81.28-422.080zM330.24 747.52c10.368 0 19.648-4.672 26.88-13.248 0.128-0.128 24.768-29.696 35.392-44.16 10.048-13.632 23.488-35.392 30.336-47.552 12.16-21.76 4.48-44.032-7.36-53.248l-24.128-19.2c-12.16-9.728-10.688-27.904-10.688-27.904s35.84-134.72 168.96-168.64c0 0 18.112-1.664 27.904 10.496l19.2 24.32c9.088 12.16 31.36 19.84 53.12 7.68 12.16-6.4 33.92-19.84 47.616-30.080 14.464-10.24 44.032-35.2 44.16-35.2 14.080-11.52 17.28-29.44 7.68-47.36v-0.64c-9.856-17.28-23.040-33.28-39.808-48.64h-0.32c-13.44-11.52-26.88-17.92-40.32-19.2-1.28 0-3.2-0.64-5.76 0-5.76 0-11.52 1.28-17.28 2.56v0.64c-20.48 5.76-54.4 20.48-110.72 51.84-36.48 20.48-67.2 40.96-93.44 62.080-13.44 10.88-27.52 23.040-41.6 37.12l-3.264 1.216-2.56 2.56c-14.080 14.080-26.24 28.16-37.12 41.792-20.48 25.984-40.96 56.64-61.44 93.44-31.36 56.32-46.080 90.24-51.84 110.72h-0.64c-1.92 5.76-3.2 11.52-2.56 17.28-0.64 2.56 0 4.48 0 5.952 1.28 12.8 8.064 26.24 19.52 40.32h0.192c15.168 16.64 31.488 30.080 48.896 39.808 7.040 3.84 14.080 5.76 20.48 5.76h0.64zM504.96 776.704h4.992l3.2-0.128h0.832l3.84-0.192h21.76l5.76-0.64h3.2l6.4-0.64h1.28l4.48-0.64h0.64l3.2-0.64c1.92 0 3.2-0.64 4.48-0.64h3.84l3.2-1.28 5.12-1.28 1.28-0.64h1.92l1.92-0.64h1.28l3.2-0.64 3.84-1.28 2.56-0.64 1.28-0.64c1.28 0 2.56-0.64 3.84-0.64l3.84-1.28 5.12-1.92 2.56-1.28 5.76-2.56 3.84-1.28 3.84-1.92 2.56-0.64 1.28-0.64 3.2-1.28 3.84-1.92 1.92-0.64 1.92-1.28 2.56-1.28 1.92-1.28 3.84-1.92 1.92-1.28 3.2-1.92 1.92-0.64 3.2-1.92 0.64-0.64 1.92-1.28 3.84-3.2 3.84-2.56 1.28-0.64 1.92-1.28 3.2-3.2 2.56-1.92 1.92-1.28 0.64-0.64 1.28-0.64 3.2-2.56 3.2-3.2 3.84-2.56 1.28-0.64 14.72-14.72c0.64-0.64 1.92-1.92 2.56-3.2l1.28-1.28 7.040-8.32 1.92-2.56c0.64-0.64 0.64-1.28 1.28-1.28l3.84-5.76 1.92-1.92 3.84-5.12 3.2-5.12 1.92-3.84 2.56-4.48 10.24-20.48 1.28-3.2c2.56-5.76 4.48-11.52 7.040-17.92 3.2-8.32 5.76-17.28 7.68-26.88 1.92-7.040 3.2-13.44 4.48-20.48l1.28-11.52 1.92-12.8c0.64-5.12 1.28-10.88 1.28-16 0.64-5.12 0.64-10.24 0.64-15.36v-10.88c0-0.64-0.32-1.28-0.64-1.92-0.64-1.28-1.28-1.92-2.56-3.2-0.896-0.64-2.112-1.92-3.392-1.92-1.28-0.64-2.56-0.64-3.84-0.64h-1.92c-1.28 0-2.56 0.64-3.84 1.28s-2.56 1.28-3.2 2.56c-0.64 1.28-1.92 2.56-2.56 3.84s-1.28 2.56-1.28 3.84v15.296c-0.64 8.96-1.28 18.176-2.56 27.264-0.64 6.272-1.92 12.16-2.56 17.92 0 3.2-0.64 6.272-1.28 8.96l-1.28 6.4-1.536 5.76-0.64 3.84-1.92 6.4c-1.28 5.12-3.2 10.24-5.12 15.36-1.28 3.84-2.56 7.040-4.48 10.24l-1.28 3.2-5.76 11.52-1.28 1.92c-2.56 5.76-5.76 11.52-9.6 16.64l-1.92 3.2h-8.576l-2.752 3.84c-2.304 3.84-4.864 7.040-7.68 10.24l-5.312 6.4-0.64 0.64-1.92 2.432-1.536 1.92-3.2 3.2-0.64 1.28-3.008 2.56-1.92 1.92-3.52 3.2-1.728 1.6-2.56 2.56c-0.64 0.64-1.92 1.92-3.2 2.56l-3.264 2.624-1.28 0.64-2.56 1.92-5.12 4.096-1.28 0.64-2.56 2.304c0 0.64-0.64 0.64-1.28 0.64l-1.92 1.92v0.64l-1.28 0.64-2.56 1.6-1.92 1.28-3.2 1.92-2.56 1.92-2.56 1.28h-3.84l-0.832 0.64-2.816 1.472-0.32 0.64-3.2 1.6h-0.512l-1.92 0.64-1.088 0.64-1.92 0.64-0.448 0.448-1.28 0.64-2.24 1.28-1.28 0.64-3.84 1.28-3.2 1.28-5.76 0.64-1.92 1.28c-0.64 0.384-1.28 0.64-1.92 0.64l-1.28 0.64c-1.28 0.448-1.92 0.64-3.2 1.28l-1.28 0.64h-1.28l-3.84 1.92-1.92 0.64h-3.904c-0.32 0-0.768 0.192-1.28 0.32h-3.84l-1.92 0.64h-0.64l-1.92 0.64h-1.728c-1.088 0.64-1.92 0.64-3.008 0.64l-0.384 0.64-2.56 0.64c-1.28 0.64-2.368 0.64-3.584 0.64l-1.92 0.64-2.112 0.64-1.92 0.64-2.56 0.64h-2.624l-7.68 1.152h-3.84l-4.992 0.64h-3.2l-2.944 0.384h-1.28l-2.304 0.64h-12.16l-0.448 0.64h-2.56c-1.28 0-2.752 0.64-3.84 1.28-1.28 0.64-2.56 1.28-3.456 2.56l-1.28 1.92c-1.28 1.28-1.28 2.56-1.92 3.84s-0.64 2.56-0.64 3.84c0 1.28 0 2.56 0.64 3.84s1.28 2.56 2.56 3.2c0.64 1.28 1.92 1.92 3.2 2.56s2.56 1.28 3.84 1.28h2.56zM528.64 709.504l1.536-0.128 2.56-0.256c0.384 0 0.768 0 1.28-0.128 0.96 0 1.92-0.192 3.2-0.256l2.56-0.32 1.024-0.64 1.92-0.64 2.048-0.64 1.92-0.64h1.28l1.792-0.64 3.008-0.64 2.368-0.64 1.152-0.64h3.072l5.12-1.28 5.76-1.92s0.64 0 0.64-0.64l5.76-1.92c0.64 0 1.28-0.64 1.92-0.64 0.32 0 0.64-0.64 1.088-0.64l2.752-1.28h1.28l3.84-1.28 2.112-1.28 1.92-1.28 4.672-1.92 2.56-0.64 1.28-1.28c1.92-0.64 3.84-1.92 5.76-2.56l4.096-2.56 2.112-1.28c1.92-1.28 3.456-1.92 5.12-3.2l1.28-0.64 1.728-1.28 0.96-0.64 3.2-1.92 1.6-1.28 2.752-1.92 2.56-1.28 1.92-1.28 2.56-1.92c0.64-0.64 0.96-0.64 1.472-1.28 0.384-0.64 0.64-0.64 1.088-1.28l1.408-1.28 1.536-1.28 9.6-9.6c0-0.64 0.64-1.28 1.28-1.28l2.56-2.56 1.28-1.92 1.28-1.28 1.92-2.56 1.92-1.92 3.84-5.12 0.64-1.28 2.56-3.2 2.56-5.12c0.64-0.64 0.64-1.28 1.28-2.56l1.92-3.2 0.64-0.64 1.28-2.56 1.28-1.92c0.64-0.64 0.64-1.28 1.28-1.92l1.28-1.92 2.56-5.12 0.64-1.92c0.64-1.92 1.92-3.2 2.56-5.12 0-0.64 0.64-1.28 0.64-1.92l1.92-5.12 2.56-8.32c0-0.64 0.64-1.92 0.64-2.56l1.92-5.76 1.92-7.68 1.92-10.24c0.64-3.2 0.64-5.76 1.28-8.96 0.64-5.12 1.28-10.24 1.28-15.36l0.64-8.96v-7.040c0-0.64 0-1.28-0.64-1.92l-1.856-1.856c-1.28-0.96-1.92-1.92-3.2-2.56s-2.56-1.28-3.84-1.728c-1.28-0.64-3.2-0.64-4.48-0.64s-2.56 0.64-3.84 1.28c-0.64 0-1.28 0.64-1.92 0.896-1.28 0.64-2.56 1.664-3.2 2.816-1.28 1.28-1.92 2.56-1.92 3.84l-0.64 1.92v13.376c0 5.632-0.64 10.88-1.28 16.384-0.64 5.76-1.92 12.16-3.2 17.92-1.28 3.84-1.92 7.68-3.2 11.136l-1.28 3.84-1.28 3.2-0.64 1.28-1.92 5.12-5.12 10.24-2.944 5.12v0.64l-1.28 2.048-1.28 1.6-1.92 3.2-5.76 7.68c-1.92 2.56-3.84 5.12-6.016 7.552-0.64 0.64-1.28 1.28-1.28 1.92l-1.92 1.92-1.28 0.64-1.28 1.152v6.208l-5.12 4.864-3.2 2.88v0.64l-1.28 1.28-1.6 1.28-0.64 0.64c0 0.64-0.64 0.64-1.28 0.64l-1.92 0.64-0.64 0.64-2.56 1.92-1.28 1.28c-0.512 0.64-0.96 0.64-1.28 0.64l-2.56 1.92-0.64 0.64-2.56 1.28-0.448 0.64-1.92 1.28-1.28 0.64-2.56 2.56h-0.64c-1.28 1.28-2.56 1.92-4.48 2.56l-1.92 1.28-1.28 0.64-0.64 0.64-1.92 1.28-1.92 0.64-2.56 1.28-1.92 0.64-0.64 0.64-2.368 0.64v0.64l-3.84 1.28-3.84 1.92h-2.56c-1.28 0.64-1.92 0.64-3.2 1.28h-1.984l-1.92 0.64h-1.92l-1.92 0.64-1.28 0.64h-2.56l-2.56 0.64-1.28 0.64h-7.040l-2.944 0.64h-14.976l-1.92 0.64c-1.28 0.64-2.56 1.28-3.84 2.56-0.64 1.28-1.92 2.56-2.56 3.84s-1.28 2.56-1.28 3.84v3.84c0.192 1.92 0.64 3.2 1.28 4.48 0.32 0.64 0.64 1.28 1.28 1.92 0.768 1.28 1.92 2.56 3.2 3.2 0.64 0.64 1.28 0.64 1.92 1.28 1.28 0.64 2.56 0.64 3.84 0.64h2.56zM547.968 640c0.64 0 1.28 0 1.92-0.128 0.64 0 1.28 0 1.92-0.128l2.176-0.192c4.48-0.384 9.088-1.024 13.568-1.92l4.48-1.024 1.088-0.32 4.864-1.28 2.56-0.832 1.92-0.64c1.92-0.64 3.84-1.92 5.76-2.56l0.64-0.64 7.68-3.84c0.64-0.64 1.28-0.64 1.92-1.28s1.92-1.28 2.56-1.92c2.56-1.28 4.48-3.2 6.4-4.48l4.48-3.84 3.84-3.84 2.56-3.2 2.56-2.56 1.92-2.56 3.84-5.76 3.2-5.76 2.56-5.12 1.92-4.48c1.92-4.48 2.56-8.32 3.84-12.8 1.28-3.84 1.92-8.32 2.56-12.16l0.64-6.4 0.64-5.76v-2.56c0-1.92-0.64-3.2-1.28-4.48s-1.92-3.2-3.2-3.84c-1.28-1.28-2.56-1.92-4.48-2.56-1.28-0.64-2.56-0.64-3.84-0.64s-2.56 0-3.84 0.64l-4.48 1.92c-1.28 1.28-2.56 1.92-3.84 3.84-0.64 1.28-1.28 2.56-1.92 4.48v7.040l-0.64 4.48-0.64 5.12-0.64 4.48-0.64 2.56c0 0.64-0.64 1.92-0.64 2.56-1.28 5.12-3.84 10.24-6.4 15.36l-2.56 2.56-1.92 2.56-1.92 1.92-0.64 1.28-3.2 2.56-2.56 2.56-2.56 1.92c-0.64 0.64-1.28 0.64-2.56 1.28l-3.84 2.56-3.84 1.92h-0.64l-3.264 1.344-3.84 1.28-3.84 0.64h-3.2l-1.92 0.64-1.536 0.32h-1.92l-2.56 0.64h-10.88l-0.64 3.2h-1.664c-1.28 0.192-2.304 0.64-3.392 1.28-1.472 0.896-2.752 1.92-3.84 3.392-0.768 1.28-1.472 2.56-1.92 3.84-0.32 1.28-0.512 2.56-0.512 3.84 0 1.6 0 3.2 0.64 4.864s1.28 3.008 2.56 4.224l2.56 1.92c1.28 0.64 2.56 1.28 3.84 1.28l2.624 3.2h1.28z" />
<glyph unicode="&#xe908;" glyph-name="dailymotion" d="M600.235 477.31c-74.837 0-132.437-60.885-132.437-132.693 0-74.795 57.6-131.627 138.88-131.627l-0.683-0.085c67.84 0 124.8 55.893 124.8 129.707 0 76.8-57.003 134.699-130.645 134.699zM0 959.998v-1024h1024v1024h-1024zM882.901 72.233h-152.576v60.16c-46.933-46.080-94.848-62.72-158.507-62.72-64.939 0-120.832 21.12-167.68 63.36-61.781 54.4-93.781 126.72-93.781 210.603 0 76.8 29.867 145.664 85.76 199.424 49.92 48.896 110.72 73.813 178.56 73.813 64.853 0 114.773-21.888 150.613-67.84v233.6l157.568 32.597v-742.997z" />
<glyph unicode="&#xe909;" glyph-name="twitch" d="M89.131 959.998l-66.731-178.133v-712.277h244.736v-133.589h133.632l133.419 133.632h200.32l267.093 267.008v623.36h-912.469zM178.133 871.038h734.507v-489.771l-155.819-155.819h-244.821l-133.419-133.419v133.419h-200.448v645.589zM423.040 425.726h88.96v267.093h-88.96v-267.093zM667.733 425.726h89.003v267.093h-89.003v-267.093z" />
<glyph unicode="&#xe90a;" glyph-name="xing" d="M776.021 959.998c-22.059 0-31.616-13.867-39.552-28.16 0 0-318.080-564.224-328.619-582.699 0.64-1.024 209.877-384.981 209.877-384.981 7.253-13.141 18.603-28.16 41.259-28.16h147.371c9.003 0 16 3.328 19.755 9.387 3.797 6.443 3.797 14.763-0.384 22.869l-208.171 380.416c-0.171 0.256-0.171 0.683 0 0.939l327.040 578.133c4.053 8.149 4.139 16.512 0.256 22.827-3.797 6.101-10.709 9.429-19.584 9.429h-149.248zM155.648 757.758c-9.003 0-16.427-3.157-20.181-9.216-3.84-6.357-3.328-14.464 0.853-22.656l99.84-172.8c0.171-0.427 0.171-0.683 0-0.896l-156.8-277.035c-4.224-8.021-3.968-16.256 0-22.571 3.627-6.059 10.197-9.984 19.2-9.984h147.669c22.101 0 32.683 14.848 40.32 28.459l159.317 281.984-101.461 177.28c-7.339 13.44-18.517 28.117-41.045 28.117h-147.712v-0.683z" />
<glyph unicode="&#xe90b;" glyph-name="ebay" horiz-adv-x="2112" d="M534.252 436.592v431.86h105.335v-265.621c51.795 61.72 123.053 79.534 193.285 79.534 117.626 0 248.236-79.341 248.236-250.603 0-20.444-1.315-40.127-5.26-58.633 21.067 83.645 111.837 114.54 254.191 117.96 44.764 1.578 96.103 1.578 136.922 1.578v11.862c0 77.693-48.806 109.183-134.292 109.183-63.201 0-109.28-26.327-114.54-71.091h-111.91c11.932 113.225 131.662 142.209 235.779 142.209 93.403 0 175.111-23.697 211.985-89.528l-38.259 73.721h123.772l180.371-362.084 180.371 362.157h109.114l-326.525-641.212h-118.152l93.929 179.056-204.524 384.466c11.406-22.382 17.551-48.709 17.551-81.638v-215.93c0-30.369 0.886-60.571 3.516-88.213h-97.778c-2.63 22.382-4.042 44.764-4.042 67.146-52.917-64.419-115.855-84.268-203.639-84.268-129.918 0-199.431 68.461-199.431 148.784 0 13.177 1.315 24.915 3.253 35.559-26.327-109.377-119.371-183.098-242.88-183.098-76.378 0-148.687 27.642-193.119 81.638 0-21.067-1.315-43.352-3.516-64.419h-103.566c1.744 34.244 3.516 75.037 3.516 109.28v92.158h-423.967c5.716-96.103 71.81-152.729 162.653-152.729 63.035 0 118.941 26.327 137.641 81.638h108.851c-21.067-113.225-141.323-151.414-244.887-151.414-188.095-1.841-271.502 102.345-271.502 241.921 0 153.948 86.206 255.434 273.511 255.434 148.161 0 257.178-77.763 258.064-246.299v-0.429zM1336.28 420.522c-96.103-2.99-155.359-20.444-155.359-83.382 0-40.819 31.587-85.154 114.54-85.154 110.595 0 169.851 60.571 169.851 159.234v11.406c-39.504 0-86.898-0.526-130.25-1.938h1.052zM804.345 255.931c97.444 0 164.661 70.758 164.661 177.312s-67.409 177.312-166.169 177.312c-97.444 0-165.906-70.758-165.906-177.312s67.146-177.312 164.591-177.312h2.63zM422.512 476.622c-3.848 98.76-74.966 135.704-151.414 135.704-82.856 0-148.687-41.608-159.304-135.704h310.719z" />
<glyph unicode="&#xe90c;" glyph-name="acolade" d="M637.133 481.331v-67.482c-66.662 0-92.211-23.91-92.211-85.606v-152.294c0-75.75-40.32-113.613-148.992-113.613l-9.062 64.205c57.626 0 80.666 15.642 80.666 50.995v142.848c0 58.445 19.507 113.178 78.771 127.181-59.264 14.822-78.771 69.555-78.771 128v142.848c0 34.611-23.040 51.046-80.666 51.046l9.062 64.205c108.672 0 148.992-37.862 148.992-113.587v-153.114c0-61.747 25.523-85.632 92.211-85.632z" />
<glyph unicode="&#xe90d;" glyph-name="backslash" d="M364.211 842.035l376.986-788.096h-81.357l-377.062 788.096z" />
<glyph unicode="&#xe90e;" glyph-name="bracket-square" d="M419.891 758.093v73.446h184.218v-767.078h-184.218v73.446h110.771v620.186z" />
<glyph unicode="&#xe90f;" glyph-name="circle" d="M716.8 448c0-113.108-91.692-204.8-204.8-204.8s-204.8 91.692-204.8 204.8c0 113.108 91.692 204.8 204.8 204.8s204.8-91.692 204.8-204.8z" />
<glyph unicode="&#xe910;" glyph-name="circle-full" d="M716.8 448c0-113.108-91.692-204.8-204.8-204.8s-204.8 91.692-204.8 204.8c0 113.108 91.692 204.8 204.8 204.8s204.8-91.692 204.8-204.8z" />
<glyph unicode="&#xe911;" glyph-name="circle-line" d="M512 790.758c-189.312-0.026-342.733-153.446-342.758-342.758 0.026-189.312 153.446-342.733 342.758-342.758 189.286 0.026 342.733 153.446 342.758 342.758-0.026 189.312-153.472 342.733-342.758 342.758zM702.413 257.587c-48.845-48.794-115.942-78.848-190.413-78.874-74.47 0.026-141.568 30.080-190.413 78.874-48.819 48.87-78.899 115.942-78.925 190.413 0.026 74.47 30.106 141.542 78.899 190.413 48.87 48.819 115.968 78.874 190.438 78.899 74.445-0.026 141.542-30.080 190.413-78.899 48.794-48.845 78.874-115.917 78.899-190.413-0.026-74.47-30.106-141.542-78.899-190.413z" />
<glyph unicode="&#xe912;" glyph-name="circless" d="M604.314 267.213c0-50.983-41.33-92.314-92.314-92.314s-92.314 41.33-92.314 92.314c0 50.983 41.33 92.314 92.314 92.314s92.314-41.33 92.314-92.314zM604.314 628.787c0-50.983-41.33-92.314-92.314-92.314s-92.314 41.33-92.314 92.314c0 50.983 41.33 92.314 92.314 92.314s92.314-41.33 92.314-92.314zM423.526 448c0-50.983-41.33-92.314-92.314-92.314s-92.314 41.33-92.314 92.314c0 50.983 41.33 92.314 92.314 92.314s92.314-41.33 92.314-92.314zM785.101 448c0-50.983-41.33-92.314-92.314-92.314s-92.314 41.33-92.314 92.314c0 50.983 41.33 92.314 92.314 92.314s92.314-41.33 92.314-92.314z" />
<glyph unicode="&#xe913;" glyph-name="comma-round" d="M581.274 276.838c0 16.256-3.123 32-8.525 45.696-2.944 7.859-7.424 15.949-12.314 21.709-12.262 14.438-30.362 23.757-50.739 23.757-36.941 0-66.944-29.952-66.944-66.893s30.003-66.944 66.944-66.944c0.845 0 1.69 0.256 2.56 0.256v-0.051c-3.046-21.939-23.731-51.61-50.381-73.293l36.838-42.65c57.395 44.314 82.56 105.421 82.56 158.413z" />
<glyph unicode="&#xe914;" glyph-name="comma-square" d="M429.082 161.152c57.779 5.862 86.272 35.149 82.074 82.893h-49.843v133.99h133.581v-113.050c0-110.541-55.245-154.957-154.931-156.646l-10.88 52.813z" />
<glyph unicode="&#xe915;" glyph-name="hash" d="M676.403 526.848l-25.011-153.856h111.488v-70.144h-123.059l-28.826-172.109h-78.822l27.878 172.109h-148.992l-27.904-172.109h-79.77l28.826 172.109h-113.408v70.144h124.979l25.011 153.856h-108.646v70.144h121.139l26.906 168.243h79.795l-27.878-168.243h148.992l27.878 168.243h78.822l-27.878-168.243h117.274v-70.144h-128.794zM597.581 526.848h-149.018l-25.958-153.856h149.965l25.011 153.856z" />
<glyph unicode="&#xe916;" glyph-name="linee" d="M291.917 492.8h440.166v-89.6h-440.166v89.6z" />
<glyph unicode="&#xe917;" glyph-name="pluss" d="M706.483 492.774h-149.683v149.709h-89.6v-149.709h-149.683v-89.6h149.683v-149.658h89.6v149.658h149.683z" />
<glyph unicode="&#xe918;" glyph-name="point-comma-round" d="M576.307 612.506c0-36.887-29.903-66.79-66.79-66.79s-66.79 29.903-66.79 66.79c0 36.887 29.903 66.79 66.79 66.79s66.79-29.903 66.79-66.79zM581.274 272.742c0 16.282-3.123 32.026-8.525 45.696-2.944 7.885-7.424 15.974-12.314 21.734-12.262 14.413-30.362 23.757-50.739 23.757-36.941 0-66.944-29.952-66.944-66.918 0-36.941 30.003-66.918 66.944-66.918 0.845 0 1.69 0.23 2.56 0.256 0-0.026 0-0.051 0-0.077-3.046-21.939-23.731-51.584-50.381-73.293l36.838-42.65c57.395 44.314 82.56 105.446 82.56 158.413z" />
<glyph unicode="&#xe919;" glyph-name="point-comma-square" d="M461.312 688.998h133.581v-133.606h-133.581v133.606zM429.082 157.363c57.779 5.862 86.272 35.149 82.074 82.893h-49.843v134.016h133.581v-113.050c0-110.541-60.39-154.957-160.051-156.621l-5.76 52.762z" />
<glyph unicode="&#xe91a;" glyph-name="point-round" d="M578.79 243.2c0-36.887-29.903-66.79-66.79-66.79s-66.79 29.903-66.79 66.79c0 36.887 29.903 66.79 66.79 66.79s66.79-29.903 66.79-66.79z" />
<glyph unicode="&#xe91b;" glyph-name="point-square" d="M445.21 309.99h133.606v-133.606h-133.606v133.606z" />
<glyph unicode="&#xe91c;" glyph-name="quote-round" d="M673.51 481.638c0 16.282-3.123 32.026-8.525 45.696-2.944 7.885-7.424 15.974-12.314 21.734-12.262 14.413-30.362 23.757-50.739 23.757-36.941 0-66.944-29.952-66.944-66.918 0-36.941 30.003-66.918 66.944-66.918 0.845 0 1.69 0.23 2.56 0.256 0-0.026 0-0.051 0-0.077-3.046-21.939-23.757-51.584-50.406-73.293l36.838-42.65c57.395 44.314 82.586 105.446 82.586 158.413zM489.062 481.638c0 16.282-3.123 32.026-8.525 45.696-2.944 7.885-7.424 15.974-12.314 21.734-12.262 14.413-30.362 23.757-50.739 23.757-36.941 0-66.944-29.952-66.944-66.918 0-36.941 30.003-66.918 66.944-66.918 0.845 0 1.69 0.23 2.56 0.256 0-0.026 0-0.051 0-0.077-3.046-21.939-23.731-51.584-50.381-73.293l36.838-42.65c57.37 44.314 82.56 105.446 82.56 158.413z" />
<glyph unicode="&#xe91d;" glyph-name="quote-square" d="M319.002 360.858c57.779 5.862 86.272 35.149 82.074 82.867h-49.843v133.99h133.606v-113.050c0-110.515-55.27-154.906-154.957-156.621l-10.88 52.813zM523.802 360.858c57.805 5.862 86.298 35.149 82.099 82.867h-49.843v133.99h133.606v-113.050c0-110.515-55.245-154.906-154.982-156.621l-10.88 52.813z" />
<glyph unicode="&#xe91e;" glyph-name="romb-full" d="M783.172 448l-271.146-271.146-271.146 271.146 271.146 271.146 271.146-271.146z" />
<glyph unicode="&#xe91f;" glyph-name="romb-line" d="M512 849.843l-401.843-401.843 401.843-401.843 401.843 401.843-401.843 401.843zM214.016 448l297.984 297.958 297.958-297.958-297.958-298.010-297.984 298.010z" />
<glyph unicode="&#xe920;" glyph-name="romb-round-full" d="M638.541 321.408c-55.731-55.68-97.613-119.962-126.541-188.365-28.979 68.429-70.835 132.71-126.541 188.365-55.731 55.731-120.038 97.613-188.493 126.592 68.454 28.954 132.762 70.81 188.442 126.515 55.757 55.706 97.613 120.013 126.566 188.442 28.979-68.454 70.835-132.762 126.566-188.416 55.706-55.731 120.013-97.587 188.442-126.541-68.429-28.979-132.736-70.861-188.442-126.592z" />
<glyph unicode="&#xe921;" glyph-name="romb-round-line" d="M667.699 603.648c-70.502 70.528-110.054 159.77-119.142 251.776h-73.062c-9.062-92.006-48.614-181.248-119.142-251.776-70.502-70.477-159.744-110.003-251.802-119.091v-73.088c92.032-9.088 181.299-48.64 251.827-119.142 70.502-70.502 110.029-159.744 119.091-251.699h73.088c9.088 91.955 48.64 181.197 119.142 251.699s159.744 110.054 251.75 119.142v73.088c-92.006 9.088-181.248 48.614-251.75 119.091zM615.757 344.192c-45.645-45.594-80-98.304-103.706-154.394-23.757 56.090-58.086 108.8-103.757 154.394-45.67 45.696-98.381 80.051-154.47 103.808 56.090 23.731 108.8 58.035 154.47 103.706s80 98.381 103.757 154.47c23.757-56.090 58.061-108.8 103.757-154.445 45.645-45.67 98.355-79.974 154.445-103.731-56.141-23.757-108.851-58.112-154.496-103.808z" />
<glyph unicode="&#xe922;" glyph-name="rombs" d="M556.39 225.152c-19.533-19.584-34.253-42.138-44.416-66.15-10.138 24.013-24.858 46.566-44.39 66.15-19.584 19.533-42.138 34.227-66.125 44.39 23.987 10.138 46.541 24.883 66.125 44.416 19.558 19.533 34.278 42.138 44.39 66.15 10.163-24.013 24.883-46.618 44.416-66.15 19.558-19.558 42.138-34.278 66.15-44.416-23.987-10.163-46.592-24.858-66.15-44.39zM556.39 582.016c-19.533-19.533-34.253-42.138-44.416-66.15-10.138 24.013-24.858 46.618-44.39 66.15-19.584 19.558-42.138 34.278-66.125 44.416 23.987 10.138 46.541 24.832 66.125 44.39 19.558 19.558 34.278 42.138 44.39 66.15 10.163-24.013 24.883-46.592 44.416-66.15 19.558-19.584 42.138-34.227 66.15-44.39-23.987-10.138-46.592-24.858-66.15-44.416zM734.848 492.416c19.558-19.584 42.112-34.278 66.15-44.416-24.038-10.163-46.592-24.858-66.15-44.416s-34.253-42.138-44.39-66.15c-10.138 24.013-24.858 46.592-44.39 66.15-19.558 19.558-42.163 34.278-66.227 44.416 24.038 10.163 46.643 24.858 66.202 44.416s34.253 42.138 44.39 66.15c10.163-24.013 24.858-46.618 44.416-66.15zM377.958 492.416c19.558-19.584 42.138-34.278 66.176-44.416-24.013-10.163-46.618-24.858-66.176-44.416s-34.253-42.138-44.39-66.15c-10.138 24.013-24.832 46.592-44.416 66.15-19.533 19.558-42.112 34.278-66.15 44.416 24.013 10.163 46.592 24.858 66.125 44.416 19.61 19.558 34.253 42.138 44.416 66.15 10.163-24.013 24.858-46.618 44.416-66.15z" />
<glyph unicode="&#xe923;" glyph-name="slashh" d="M659.789 842.035l-377.011-788.096h81.434l377.011 788.096z" />
<glyph unicode="&#xe924;" glyph-name="star-full" d="M666.701 366.669l36.506-212.915-191.206 100.557-191.206-100.557 36.531 212.915-154.726 150.784 213.786 31.078 95.616 193.715 95.59-193.715 213.811-31.078z" />
<glyph unicode="&#xe925;" glyph-name="star-line" d="M937.651 551.245l-294.093 42.778-131.558 266.445-131.507-266.445-294.144-42.778 212.813-207.462-25.062-146.253-25.165-146.688 263.066 138.368 263.066-138.342-25.139 146.688-25.088 146.253 212.813 207.437zM645.888 369.459l31.59-184.294-165.478 86.989-165.504-86.989 31.616 184.294-133.914 130.509 185.062 26.906 82.739 167.68 82.765-167.68 185.062-26.906-133.939-130.509z" />
<glyph unicode="&#xe926;" glyph-name="translingual" d="M245.606 364.928c32.563 123.827 76.595 172.698 154.778 172.698 71.706 0 161.306-66.79 218.317-66.79 42.342 0 60.288 21.171 84.762 81.459l74.957-21.171c-32.589-123.827-74.957-172.698-153.19-172.698-73.293 0-162.893 66.79-218.291 66.79-42.368 0-60.288-21.197-84.71-81.485l-76.621 21.197z" />
<glyph unicode="&#xe927;" glyph-name="upp" d="M512 620.595l-345.19-345.19h126.694l218.496 218.496 218.445-218.496h126.746z" />
<glyph unicode="&#xe928;" glyph-name="vertical-line" d="M475.264 842.035h73.446v-788.096h-73.446v788.096z" />
<glyph unicode="&#xe929;" glyph-name="dots-circle-big" d="M303.565 448c0-66.847-54.211-121.016-121.016-121.016-66.857 0-121.037 54.17-121.037 121.016 0 66.836 54.18 121.016 121.037 121.016 66.806 0 121.016-54.18 121.016-121.016zM633.037 448c0-66.847-54.18-121.016-121.057-121.016-66.806 0-121.006 54.17-121.006 121.016 0 66.836 54.2 121.016 121.006 121.016 66.877 0 121.057-54.18 121.057-121.016zM962.499 448c0-66.847-54.18-121.016-121.047-121.016-66.806 0-120.975 54.17-120.975 121.016 0 66.836 54.17 121.016 120.975 121.016 66.867 0 121.047-54.18 121.047-121.016z" />
<glyph unicode="&#xe92a;" glyph-name="dots-circle-line" d="M180.173 563.118c-63.457 0-115.098-51.63-115.098-115.118s51.63-115.118 115.098-115.118 115.087 51.64 115.087 115.118-51.63 115.118-115.087 115.118zM180.173 379.023c-38.093 0-68.956 30.884-68.956 68.977s30.863 68.977 68.956 68.977 68.956-30.874 68.956-68.977-30.863-68.977-68.956-68.977zM511.98 563.118c-63.457 0-115.087-51.63-115.087-115.118s51.63-115.118 115.087-115.118c63.488 0 115.128 51.64 115.128 115.118s-51.651 115.118-115.128 115.118zM511.98 379.023c-38.072 0-68.956 30.884-68.956 68.977s30.884 68.977 68.956 68.977c38.124 0 68.987-30.874 68.987-68.977s-30.863-68.977-68.987-68.977zM843.807 563.118c-63.457 0-115.087-51.63-115.087-115.118s51.63-115.118 115.087-115.118c63.478 0 115.108 51.64 115.108 115.118s-51.62 115.118-115.108 115.118zM843.807 379.023c-38.072 0-68.956 30.884-68.956 68.977s30.894 68.977 68.956 68.977c38.093 0 68.977-30.874 68.977-68.977s-30.884-68.977-68.977-68.977z" />
<glyph unicode="&#xe92b;" glyph-name="dots-circle-line-medium" d="M188.375 573.46c-69.181 0-125.471-56.289-125.471-125.46 0-69.202 56.289-125.46 125.471-125.46 69.171 0 125.45 56.259 125.45 125.46 0 69.171-56.279 125.46-125.45 125.46zM188.375 372.808c-41.523 0-75.192 33.659-75.192 75.192 0 41.523 33.669 75.192 75.192 75.192 41.503 0 75.141-33.669 75.141-75.192 0-41.533-33.638-75.192-75.141-75.192zM512 573.46c-69.181 0-125.44-56.289-125.44-125.46 0-69.202 56.259-125.46 125.44-125.46 69.192 0 125.44 56.259 125.44 125.46 0 69.171-56.248 125.46-125.44 125.46zM512 372.808c-41.523 0-75.192 33.659-75.192 75.192 0 41.523 33.669 75.192 75.192 75.192 41.533 0 75.203-33.669 75.203-75.192 0-41.533-33.669-75.192-75.203-75.192zM835.625 573.46c-69.161 0-125.44-56.289-125.44-125.46 0-69.202 56.279-125.46 125.44-125.46 69.181 0 125.471 56.259 125.471 125.46-0.010 69.171-56.3 125.46-125.471 125.46zM835.625 372.808c-41.492 0-75.141 33.659-75.141 75.192 0 41.523 33.649 75.192 75.141 75.192 41.523 0 75.192-33.669 75.192-75.192-0.010-41.533-33.679-75.192-75.192-75.192z" />
<glyph unicode="&#xe92c;" glyph-name="dots-circle-medium" d="M283.474 448c0-60.705-49.211-109.916-109.916-109.916s-109.916 49.211-109.916 109.916c0 60.705 49.211 109.916 109.916 109.916s109.916-49.211 109.916-109.916zM621.937 448c0-60.711-49.216-109.926-109.926-109.926s-109.926 49.216-109.926 109.926c0 60.711 49.216 109.926 109.926 109.926s109.926-49.216 109.926-109.926zM960.358 448c0-60.699-49.207-109.906-109.906-109.906s-109.906 49.207-109.906 109.906c0 60.699 49.207 109.906 109.906 109.906s109.906-49.207 109.906-109.906z" />
<glyph unicode="&#xe92d;" glyph-name="dots-circle-united-line" d="M813.937 617.636c-66.202 0-123.044-38.523-150.958-93.962-27.955 55.439-84.797 93.962-150.999 93.962s-123.003-38.441-150.958-93.839c-27.955 55.398-84.756 93.839-150.917 93.839-93.563 0-169.636-76.083-169.636-169.636s76.083-169.636 169.636-169.636c66.161 0 122.962 38.441 150.917 93.839 27.955-55.398 84.756-93.839 150.958-93.839s123.044 38.523 150.999 93.962c27.924-55.439 84.756-93.962 150.958-93.962 93.522 0 169.605 76.083 169.605 169.636s-76.083 169.636-169.605 169.636zM210.104 352.082c-52.961 0-95.918 42.916-95.918 95.918s42.957 95.918 95.918 95.918c52.92 0 95.836-42.916 95.836-95.918s-42.916-95.918-95.836-95.918zM511.98 352.082c-52.961 0-95.877 42.916-95.877 95.918s42.916 95.918 95.877 95.918c52.92 0 95.877-42.916 95.877-95.918s-42.957-95.918-95.877-95.918zM813.937 352.082c-52.961 0-95.877 42.916-95.877 95.918s42.916 95.918 95.877 95.918 95.887-42.916 95.887-95.918-42.926-95.918-95.887-95.918z" />
<glyph unicode="&#xe92e;" glyph-name="dots-romb" d="M55.449 448.001l78.2 78.2 78.2-78.2-78.2-78.2-78.2 78.2zM433.793 448l78.2 78.2 78.2-78.2-78.2-78.2-78.2 78.2zM812.129 447.995l78.2 78.2 78.2-78.2-78.2-78.2-78.2 78.2z" />
<glyph unicode="&#xe92f;" glyph-name="dots-romb-big" d="M74.565 447.999l154.039 154.039 154.039-154.039-154.039-154.039-154.039 154.039zM357.954 448l154.039 154.039 154.039-154.039-154.039-154.039-154.039 154.039zM641.334 447.999l154.039 154.039 154.039-154.039-154.039-154.039-154.039 154.039z" />
<glyph unicode="&#xe930;" glyph-name="dots-romb-line" d="M197.243 590.264l-142.275-142.264 142.275-142.254 142.254 142.254-142.254 142.264zM106.383 448l90.86 90.86 90.86-90.86-90.86-90.86-90.86 90.86zM512 590.264l-142.275-142.264 142.275-142.264 142.275 142.264-142.275 142.264zM421.14 448l90.86 90.86 90.87-90.86-90.87-90.86-90.86 90.86zM826.767 590.264l-142.264-142.264 142.275-142.254 142.254 142.254-142.264 142.264zM735.908 448l90.86 90.86 90.86-90.86-90.86-90.86-90.86 90.86z" />
<glyph unicode="&#xe931;" glyph-name="dots-romb-united" d="M74.565 447.999l154.039 154.039 154.039-154.039-154.039-154.039-154.039 154.039zM357.954 448l154.039 154.039 154.039-154.039-154.039-154.039-154.039 154.039zM641.334 447.999l154.039 154.039 154.039-154.039-154.039-154.039-154.039 154.039z" />
<glyph unicode="&#xe932;" glyph-name="dots-romb-united-line" d="M373.074 415.775l138.926-138.936 138.926 138.926 138.926-138.926 171.172 171.162-171.162 171.162-138.947-138.936-138.916 138.936-138.936-138.936-138.926 138.936-171.162-171.162 171.162-171.162 138.936 138.936zM789.862 539.515l91.505-91.515-91.515-91.515-91.505 91.515 91.515 91.515zM512 539.515l91.515-91.515-91.515-91.515-91.515 91.515 91.515 91.515zM234.138 539.515l91.515-91.515-91.515-91.515-91.505 91.515 91.505 91.515z" />
<glyph unicode="&#xe933;" glyph-name="dots-square" d="M72.212 509.44h122.88v-122.88h-122.88v122.88zM450.56 509.44h122.88v-122.88h-122.88v122.88zM828.897 509.44h122.88v-122.88h-122.88v122.88z" />
<glyph unicode="&#xe934;" glyph-name="dots-square-big" d="M61.501 569.016h242.053v-242.043h-242.053v242.043zM390.973 569.016h242.063v-242.043h-242.063v242.043zM720.445 569.016h242.053v-242.043h-242.053v242.043z" />
<glyph unicode="&#xe935;" glyph-name="dots-square-line" d="M54.159 324.332h247.327v247.337h-247.327v-247.337zM95.119 530.708h165.407v-165.417h-165.407v165.417zM388.332 324.332h247.327v247.337h-247.327v-247.337zM429.292 530.708h165.407v-165.417h-165.407v165.417zM722.524 324.332h247.316v247.337h-247.316v-247.337zM763.484 530.708h165.396v-165.417h-165.396v165.417z" />
<glyph unicode="&#xe936;" glyph-name="dots-square-line-big" d="M51.599 316.652h262.687v262.697h-262.687v-262.697zM107.919 523.028h150.047v-150.057h-150.047v150.057zM380.652 316.652h262.687v262.697h-262.687v-262.697zM436.972 523.028h150.047v-150.057h-150.047v150.057zM709.724 579.348v-262.697h262.676v262.697h-262.676zM766.044 523.028h150.036v-150.057h-150.036v150.057z" />
<glyph unicode="&#xe937;" glyph-name="dots-square-medium" d="M69.038 552.509h209.009v-209.019h-209.009v209.019zM407.491 552.509h209.009v-209.019h-209.009v209.019zM745.953 552.509h209.009v-209.019h-209.009v209.019z" />
<glyph unicode="&#xe938;" glyph-name="magnifier-big-fill-space" d="M833.925 251.361c-16.323-24.412-35.236-47.442-56.535-68.741-21.289-21.289-44.319-40.141-68.772-56.545l155.935-155.976 125.338 125.348-155.965 155.914zM705.034 776.868c144.2-144.138 144.2-377.784 0-521.902-144.067-144.118-377.713-144.118-521.851 0s-144.138 377.774 0 521.902c144.138 144.097 377.743 144.097 521.851 0z" />
<glyph unicode="&#xe939;" glyph-name="magnifier-big-long-line" d="M966.277 62.024l-153.293 153.395c58.122 73.738 87.572 162.98 87.511 252.068 0.061 104.253-39.936 208.968-119.501 288.492-79.555 79.575-184.238 119.613-288.471 119.542-104.243 0.082-208.916-39.956-288.44-119.542-79.606-79.524-119.603-184.248-119.562-288.492-0.041-104.243 39.956-208.968 119.562-288.492 79.555-79.544 184.238-119.501 288.471-119.46 89.047-0.041 178.309 29.42 252.088 87.542l153.313-153.395c18.842-18.883 49.459-18.883 68.332 0 18.872 18.842 18.872 49.459-0.010 68.342zM272.425 247.357c-60.918 60.938-91.187 140.278-91.249 220.129 0.061 79.831 30.331 159.212 91.249 220.17 60.908 60.918 140.288 91.136 220.088 91.197 79.831-0.061 159.181-30.28 220.14-91.197 60.877-60.959 91.105-140.339 91.177-220.17-0.072-79.841-30.3-159.222-91.177-220.129-60.918-60.856-140.308-91.095-220.109-91.116-79.821 0.020-159.201 30.259-220.119 91.116zM486.134 701.092c-17.807 0-32.215-14.418-32.215-32.236 0-17.797 14.397-32.215 32.215-32.215 12.339 0 24.351-1.28 35.942-3.697 34.038-7.076 64.41-24.003 88.187-47.718 23.757-23.736 40.663-54.098 47.698-88.177 2.417-11.602 3.717-23.603 3.717-35.932 0-17.838 14.418-32.246 32.215-32.246s32.215 14.408 32.215 32.246c-0.010 132.577-107.407 239.974-239.974 239.974z" />
<glyph unicode="&#xe93a;" glyph-name="magnifier-big-rounded" d="M946.371 125.542l-125.379 125.44c43.643 65.925 65.495 142.1 65.475 218.040 0.051 101.069-38.676 202.588-115.835 279.706-77.117 77.148-178.606 115.948-279.644 115.886-101.079 0.061-202.557-38.738-279.665-115.876-77.169-77.128-115.937-178.627-115.907-279.716-0.031-101.069 38.728-202.588 115.907-279.665 77.117-77.117 178.616-115.825 279.665-115.804 75.94-0.020 152.136 21.862 218.061 65.495l125.348-125.46c30.915-30.904 81.029-30.904 111.954-0.020 30.915 30.935 30.915 81.029 0.020 111.974zM705.772 254.218c-59.443-59.341-136.899-88.842-214.784-88.924-77.896 0.082-155.341 29.583-214.784 88.924-59.443 59.484-88.975 136.919-89.037 214.804 0.061 77.885 29.604 155.372 89.037 214.825 59.464 59.443 136.878 88.945 214.784 89.016 77.865-0.082 155.3-29.583 214.784-89.016 59.361-59.464 88.914-136.919 88.945-214.825-0.041-77.885-29.583-155.361-88.945-214.804z" />
<glyph unicode="&#xe93b;" glyph-name="magnifier-big-rounded-line" d="M946.371 125.542l-125.379 125.44c43.643 65.925 65.495 142.1 65.475 218.040 0.051 101.069-38.676 202.588-115.835 279.706-77.117 77.148-178.606 115.948-279.644 115.886-101.079 0.061-202.557-38.738-279.665-115.876-77.169-77.128-115.937-178.627-115.907-279.716-0.031-101.069 38.728-202.588 115.907-279.665 77.117-77.117 178.616-115.825 279.665-115.804 75.94-0.020 152.136 21.862 218.061 65.495l125.348-125.46c30.915-30.904 81.029-30.904 111.954-0.020 30.915 30.935 30.915 81.029 0.020 111.974zM705.772 254.218c-59.443-59.341-136.899-88.842-214.784-88.924-77.896 0.082-155.341 29.583-214.784 88.924-59.443 59.484-88.975 136.919-89.037 214.804 0.061 77.885 29.604 155.372 89.037 214.825 59.464 59.443 136.878 88.945 214.784 89.016 77.865-0.082 155.3-29.583 214.784-89.016 59.361-59.464 88.914-136.919 88.945-214.825-0.041-77.885-29.583-155.361-88.945-214.804zM376.197 617.452c-13.558 12.718-34.826 12.083-47.555-1.495-38.38-40.899-57.324-94.095-57.324-146.893 0-52.787 18.944-105.984 57.324-146.883 12.718-13.578 33.987-14.223 47.555-1.495 13.527 12.739 14.223 33.997 1.495 47.565-25.856 27.525-39.055 63.959-39.055 100.823 0 36.874 13.199 73.349 39.055 100.854 12.728 13.548 12.042 34.806-1.495 47.524z" />
<glyph unicode="&#xe93c;" glyph-name="magnifier-big-space" d="M955.525 118.252l-112.998 113.029c-14.828-22.231-32.031-43.11-51.313-62.444-19.354-19.333-40.243-36.444-62.495-51.374l112.978-112.968c31.406-31.447 82.33-31.447 113.736 0 31.529 31.416 31.529 82.381 0.092 113.756zM733.42 763.044c-148.081 148.122-388.311 148.122-536.453 0-148.122-148.152-148.122-388.332 0-536.422 148.142-148.163 388.372-148.163 536.453 0 148.204 148.091 148.204 388.27 0 536.422zM660.879 299.162c-108.083-108.073-283.177-108.073-391.281 0-108.124 108.124-108.124 283.187 0 391.281 108.104 108.104 283.156 108.104 391.281 0 108.124-108.093 108.124-283.167 0-391.281z" />
<glyph unicode="&#xe93d;" glyph-name="magnifier-big-square-space" d="M832.010 253.276c-16.333-24.422-35.246-47.442-56.525-68.741-21.299-21.299-44.329-40.141-68.782-56.535l155.924-155.976 125.338 125.348-155.955 155.904zM706.939 774.943c-144.097 144.097-377.713 144.097-521.851 0-144.128-144.138-144.128-377.743 0-521.882 144.138-144.097 377.784-144.097 521.851 0 144.179 144.138 144.179 377.743 0 521.882zM626.586 333.435c-99.707-99.727-261.386-99.727-361.144 0-99.738 99.727-99.738 261.396 0 361.155 99.748 99.717 261.407 99.717 361.144 0 99.779-99.758 99.779-261.427 0-361.155z" />
<glyph unicode="&#xe93e;" glyph-name="magnifier-fill-round-space" d="M950.579 128.164l-145.336 145.336c-15.483-23.142-33.403-44.964-53.555-65.137-20.183-20.183-42.004-38.042-65.157-53.576l145.285-145.367c32.799-32.788 85.944-32.788 118.723 0 32.84 32.758 32.84 85.944 0.041 118.743zM686.725 767.805c136.622-136.581 136.622-357.939 0-494.51-136.52-136.571-357.898-136.571-494.479 0-136.561 136.571-136.561 357.929 0 494.51 136.571 136.54 357.939 136.54 494.479 0z" />
<glyph unicode="&#xe93f;" glyph-name="magnifier-medium-long" d="M980.152 34.775l-189.747 189.747c60.293 73.196 90.614 163 90.552 252.58 0.061 101.755-38.953 203.848-116.603 281.498-77.629 77.67-179.732 116.664-281.446 116.603-101.765 0.061-203.848-38.932-281.477-116.603-77.65-77.629-116.664-179.743-116.623-281.467-0.041-101.755 38.973-203.848 116.623-281.436 77.629-77.64 179.722-116.654 281.477-116.593 89.569-0.061 179.395 30.249 252.58 90.501l189.737-189.757 54.927 54.927zM256.358 250.624c-62.669 62.659-93.839 144.394-93.86 226.509 0.020 82.094 31.191 163.85 93.86 226.54 62.669 62.638 144.425 93.809 226.55 93.839 82.084-0.031 163.84-31.201 226.509-93.839 62.638-62.659 93.809-144.445 93.829-226.57-0.020-82.094-31.191-163.84-93.829-226.478-62.669-62.628-144.404-93.798-226.509-93.829-82.125 0.020-163.881 31.191-226.55 93.829z" />
<glyph unicode="&#xe940;" glyph-name="magnifier-medium-long-light" d="M980.152 34.775l-189.747 189.747c60.293 73.196 90.624 163 90.552 252.58 0.061 101.755-38.953 203.848-116.603 281.498-77.629 77.66-179.722 116.664-281.436 116.603-101.765 0.061-203.848-38.943-281.477-116.603-77.65-77.629-116.664-179.743-116.634-281.467-0.031-101.755 38.973-203.848 116.623-281.436 77.64-77.64 179.722-116.654 281.477-116.593 89.58-0.061 179.395 30.249 252.58 90.501l189.737-189.757 54.927 54.927zM256.358 250.624c-62.669 62.659-93.839 144.394-93.86 226.509 0.020 82.094 31.191 163.85 93.86 226.54 62.679 62.638 144.425 93.809 226.55 93.839 82.084-0.031 163.85-31.201 226.509-93.839 62.638-62.659 93.809-144.445 93.819-226.57-0.010-82.094-31.171-163.84-93.819-226.478-62.669-62.628-144.404-93.798-226.499-93.829-82.125 0.020-163.881 31.191-226.56 93.829zM480.87 705.055c58.9-0.020 117.576-22.374 162.529-67.369 45.005-44.954 67.338-103.639 67.369-162.519 0.020-25.344-4.168-50.534-12.431-74.629 0.031 0.522 0.092 0.983 0.041 1.485-12.564 86.917-45.896 152.023-92.242 198.369v0.020h-0.041c-46.336 46.336-111.442 79.688-198.349 92.262-0.512 0.051-0.973-0.010-1.485-0.051 24.105 8.253 49.295 12.442 74.609 12.431z" />
<glyph unicode="&#xe941;" glyph-name="magnifier-medium-long-line" d="M980.152 34.775l-189.747 189.747c60.293 73.196 90.624 163 90.552 252.58 0.061 101.755-38.953 203.848-116.603 281.498-77.629 77.66-179.722 116.664-281.436 116.603-101.765 0.061-203.848-38.943-281.477-116.603-77.65-77.629-116.664-179.743-116.634-281.467-0.031-101.755 38.973-203.848 116.623-281.436 77.64-77.64 179.722-116.654 281.477-116.593 89.58-0.061 179.395 30.249 252.58 90.501l189.737-189.757 54.927 54.927zM256.358 250.624c-62.669 62.659-93.839 144.394-93.86 226.509 0.020 82.094 31.191 163.85 93.86 226.54 62.679 62.638 144.425 93.809 226.55 93.839 82.084-0.031 163.85-31.201 226.509-93.839 62.638-62.659 93.809-144.445 93.829-226.57-0.020-82.094-31.181-163.84-93.829-226.478-62.669-62.628-144.404-93.798-226.499-93.829-82.125 0.020-163.881 31.191-226.56 93.829zM668.201 479.099l42.568 0.748c-1.004 57.754-24.023 114.719-67.369 158.095l0.307-0.297-0.307 0.307c-43.172 43.244-101.028 67.215-162.13 67.164v-42.557c50.002-0.051 96.635-19.364 132.045-54.712l-0.307 0.297 0.307-0.287c35.42-35.482 54.057-81.766 54.886-128.758z" />
<glyph unicode="&#xe942;" glyph-name="magnifier-medium-short" d="M958.484 58.982l-134.543 134.502c63.078 76.595 94.761 170.455 94.7 264.141 0.061 106.414-40.755 213.228-121.917 294.431-81.224 81.183-187.965 121.958-294.349 121.938-106.445 0.020-213.176-40.796-294.38-121.938-81.224-81.203-122.020-188.017-121.979-294.369-0.041-106.445 40.755-213.166 121.979-294.287 81.203-81.285 187.945-122.020 294.38-121.979 93.727-0.041 187.607 31.642 264.11 94.659l134.564-134.564 57.436 57.467zM265.452 220.795c-65.556 65.495-98.14 150.999-98.181 236.882 0.041 85.832 32.625 171.346 98.181 236.913 65.556 65.536 151.060 98.099 236.923 98.14 85.821-0.041 171.346-32.604 236.902-98.14 65.495-65.516 98.099-151.122 98.099-236.913 0-85.924-32.604-171.387-98.099-236.882-65.556-65.495-150.999-98.099-236.902-98.099-85.862 0-171.356 32.604-236.923 98.099z" />
<glyph unicode="&#xe943;" glyph-name="magnifier-medium-short-light" d="M958.484 58.982l-134.564 134.502c63.099 76.595 94.781 170.455 94.72 264.141 0.061 106.414-40.755 213.228-121.917 294.431-81.244 81.183-187.976 121.958-294.359 121.938-106.435 0.020-213.187-40.796-294.369-121.938-81.234-81.203-122.010-188.017-121.989-294.369-0.020-106.445 40.755-213.166 121.989-294.287 81.193-81.285 187.945-122.020 294.369-121.979 93.716-0.041 187.597 31.642 264.11 94.659l134.554-134.564 57.457 57.467zM265.431 220.795c-65.546 65.495-98.13 150.999-98.171 236.882 0.041 85.832 32.625 171.346 98.171 236.913 65.567 65.536 151.081 98.099 236.933 98.14 85.821-0.041 171.336-32.604 236.902-98.14 65.495-65.516 98.12-151.122 98.12-236.913 0-85.924-32.625-171.387-98.12-236.882-65.556-65.495-151.009-98.099-236.902-98.099-85.852 0-171.366 32.604-236.933 98.099zM505.385 696.279c-61.901-0.020-123.566-23.501-170.824-70.799-47.288-47.258-70.769-108.923-70.799-170.834-0.041-26.624 4.383-53.105 13.046-78.428-0.031 0.522-0.092 1.024-0.031 1.556 13.199 91.341 48.241 159.775 96.963 208.497v0.020h0.031c48.712 48.722 117.135 83.763 208.486 96.963 0.522 0.061 1.024 0 1.536-0.041-25.313 8.684-51.794 13.087-78.408 13.066z" />
<glyph unicode="&#xe944;" glyph-name="magnifier-outline-line" d="M978.975 138.24l-183.798 183.757c28.969 54.856 43.53 115.343 43.53 175.729 0.031 96.184-36.792 192.645-110.193 266.035-73.441 73.421-169.902 110.285-266.107 110.244-96.225 0.041-192.696-36.823-266.127-110.244-73.462-73.4-110.295-169.943-110.285-266.138-0.020-96.246 36.823-192.727 110.285-266.127 73.4-73.4 169.841-110.162 265.994-110.121 60.396 0 120.852 14.541 175.708 43.479l183.798-183.818 157.194 157.204zM239.421 274.678c-61.635 61.624-92.365 142.121-92.385 222.945 0.031 80.804 30.761 161.3 92.385 222.996 61.665 61.604 142.193 92.283 222.976 92.324 80.773-0.041 161.29-30.72 222.945-92.324 61.614-61.655 92.283-142.121 92.314-222.904 0-57.272-15.514-114.524-46.469-164.884l-12.636-20.562 174.111-174.029-70.892-70.902-174.060 174.121-20.531-12.595c-50.401-30.935-107.612-46.438-164.915-46.459-80.742 0.051-161.219 30.679-222.843 92.273zM657.367 495.145l45.773 0.799c-1.065 62.116-25.825 123.382-72.438 170.025l0.328-0.317-0.328 0.338c-46.438 46.52-108.657 72.284-174.377 72.264v-45.804c53.791-0.020 103.926-20.797 142.019-58.819l-0.328 0.317 0.328-0.297c38.083-38.185 58.122-87.941 59.023-138.506z" />
<glyph unicode="&#xe945;" glyph-name="magnifier-real-long" d="M946.309 110.623l-187.136 187.156-28.641-28.641-88.627 88.617c44.36 53.258 71.045 121.754 71.025 196.454 0.082 169.677-137.452 307.22-307.159 307.159-169.605 0.041-307.149-137.544-307.18-307.2 0.031-169.646 137.533-307.149 307.18-307.149 74.732 0 143.196 26.696 196.465 71.055l88.637-88.617-28.631-28.621 187.105-187.095c26.788-26.757 70.175-26.757 96.87 0 26.86 26.696 26.829 70.093 0.092 96.881zM405.801 330.117c-123.853 0-224.072 100.28-224.041 224.092 0 123.781 100.219 224.041 224.072 224.061 123.781 0 224.031-100.198 224.031-224.041-0.031-123.791-100.25-224.092-224.061-224.113z" />
<glyph unicode="&#xe946;" glyph-name="magnifier-real-long-line" d="M599.777 674.13c-43.356 43.356-100.106 65.024-156.877 65.024-56.822-0.041-113.633-21.719-157-65.044-86.733-86.825-86.733-227.226 0-313.969 43.387-43.397 100.157-65.075 156.948-65.075 56.801 0 113.572 21.678 156.928 65.075 86.733 86.743 86.692 227.236 0 313.989zM564.859 395.049c-32.625-32.655-75.94-50.657-122.010-50.657s-89.405 18.002-122.071 50.657c-67.267 67.256-67.267 176.824 0 244.142 32.635 32.625 76.001 50.575 122.122 50.616 46.070 0 89.395-17.961 121.958-50.565 67.328-67.328 67.328-176.916 0-244.193zM946.452 134.789l-141.947 141.957-43.213-43.223-54.753 54.723c55.296 63.56 85.75 143.79 85.75 228.864-0.031 93.338-36.372 181.105-102.38 247.081-65.935 66.017-153.702 102.4-247.040 102.4-93.348 0-181.115-36.383-247.112-102.4-65.987-65.956-102.318-153.702-102.318-247.081s36.352-181.146 102.359-247.142c65.987-66.017 153.743-102.318 247.071-102.318 85.023 0 165.212 30.464 228.772 85.719l54.743-54.723-43.151-43.203 17.439-17.48 124.426-124.396c16.691-16.722 38.789-25.16 60.641-25.119 21.903-0.041 43.93 8.397 60.559 25.098 16.753 16.66 25.252 38.758 25.201 60.641 0.031 21.821-8.387 43.878-25.047 60.6zM230.687 304.855c-117.197 117.248-117.197 307.323-0.020 424.448 58.604 58.624 135.424 87.962 212.214 87.962 76.8 0 153.58-29.338 212.152-87.982 117.207-117.135 117.238-307.21 0.041-424.407-58.614-58.604-135.393-87.89-212.193-87.89-76.79 0-153.59 29.286-212.193 87.869zM911.524 48.486h-0.061v-0.061c-7.168-7.117-16.312-10.578-25.713-10.619-9.37 0.041-18.565 3.502-25.754 10.68l-106.977 106.967 51.487 51.476 107.008-106.977c7.137-7.199 10.609-16.404 10.639-25.764-0.020-9.441-3.492-18.555-10.629-25.702z" />
<glyph unicode="&#xe947;" glyph-name="magnifier-real-space-line" d="M464.476 244.736c-66.877 0-129.812 26.102-177.162 73.503-97.69 97.659-97.69 256.717 0 354.478 47.35 47.299 110.295 73.38 177.254 73.421 66.867 0 129.751-26.040 177.070-73.4 97.72-97.761 97.741-256.799 0-354.499-47.319-47.401-110.244-73.503-177.162-73.503v0zM464.568 708.393c-56.893-0.020-110.387-22.18-150.62-62.382-82.975-83.036-82.975-218.112 0-301.117 40.315-40.243 93.788-62.444 150.528-62.444 56.76 0 110.213 22.2 150.477 62.444 40.151 40.182 62.269 93.665 62.269 150.6 0 56.904-22.118 110.356-62.269 150.579-40.12 40.202-93.532 62.321-150.385 62.321v0zM953.938 129.28l-119.511 119.542-123.279-123.3 119.439-119.439c16.179-16.241 38.564-25.539 61.358-25.539h0.532c23.142 0 44.913 9.062 61.317 25.539 16.323 16.2 25.651 38.636 25.6 61.604 0.020 23.214-9.001 45.117-25.457 61.594zM926.095 33.679c-9.062-8.96-21.074-13.916-33.915-13.978-12.831 0.061-24.863 5.059-33.935 14.080l-91.73 91.74 67.912 67.901 91.802-91.802c9.011-9.083 13.957-21.135 14.008-33.956-0.051-12.831-5.018-24.842-14.141-33.987zM750.49 247.255c59.965 68.915 92.979 157.061 92.979 248.197-0.041 101.263-39.465 196.444-111.022 267.96-71.516 71.639-166.666 111.084-267.919 111.084-101.274 0-196.444-39.444-267.991-111.084-71.578-71.516-110.981-166.676-110.981-267.96 0-101.253 39.404-196.454 111.002-268.052 71.547-71.537 166.728-110.961 267.971-110.961 91.044 0 179.149 33.024 248.095 92.959l37.868 37.857zM464.527 155.617c-90.788 0-176.097 35.338-240.292 99.461-64.184 64.236-99.533 149.596-99.533 240.394 0 90.778 35.328 176.097 99.512 240.241 64.225 64.215 149.565 99.625 240.312 99.625 90.726 0 176.046-35.4 240.23-99.635 64.184-64.143 99.553-149.463 99.553-240.241 0.020-90.819-35.318-176.159-99.512-240.353-64.174-64.154-149.514-99.492-240.271-99.492z" />
<glyph unicode="&#xe948;" glyph-name="magnifier-thin-long" d="M932.086-1.352c-7.803 0-15.145 3.031-20.634 8.54l-165.304 165.407-13.343-10.496c-68.311-53.791-153.58-83.415-240.087-83.415-104.018-0.041-201.667 40.387-275.139 113.848-73.523 73.452-113.992 171.1-113.951 274.964-0.041 103.864 40.428 201.503 113.94 274.954 73.421 73.492 170.957 113.951 274.616 113.951 104.294 0 201.83-40.458 275.272-113.93 73.513-73.472 113.951-171.1 113.91-274.975 0.041-86.641-29.583-171.93-83.405-240.23l-10.516-13.322 165.304-165.417c5.54-5.55 8.581-12.892 8.581-20.695 0-7.782-3.041-15.124-8.561-20.623-5.519-5.53-12.872-8.561-20.685-8.561v0zM492.483 797.972c-88.269-0.082-171.213-34.458-233.585-96.799-62.413-62.474-96.778-145.439-96.84-233.677 0.061-88.228 34.427-171.223 96.84-233.626 62.413-62.362 145.367-96.696 233.636-96.737 88.248 0.041 171.223 34.376 233.605 96.717 62.362 62.362 96.717 145.316 96.799 233.626-0.082 88.279-34.437 171.254-96.778 233.677-62.413 62.362-145.377 96.737-233.646 96.819h-0.031z" />
<glyph unicode="&#xe949;" glyph-name="magnifier-thin-short" d="M903.977 18.821l-133.591 133.612-10.045-8.264c-71.557-58.941-162.028-91.382-254.74-91.382-107.622-0.061-208.548 41.738-284.488 117.74-76.012 75.919-117.832 176.845-117.791 284.17-0.041 107.315 41.779 208.271 117.77 284.232 76.001 75.919 176.947 117.76 284.252 117.76s208.251-41.841 284.232-117.78c75.981-76.001 117.78-176.968 117.699-284.252 0.082-92.795-32.41-183.347-91.443-255.027l-8.284-10.056 133.622-133.591-37.192-37.161zM505.334 804.076c-93.327-0.041-181.074-36.372-247.050-102.298-65.987-66.017-102.339-153.764-102.38-247.071 0.041-93.368 36.393-181.094 102.38-247.009 66.038-65.956 153.764-102.298 247.050-102.298 93.266 0 180.992 36.342 247.020 102.298 65.976 65.956 102.308 153.702 102.308 247.009s-36.332 181.033-102.287 247.050c-65.997 65.956-153.713 102.287-247.040 102.318v0z" />
<glyph unicode="&#xe94a;" glyph-name="menu-arrow-down" d="M803.379 617.636h-582.758c-18.586 0-33.741 15.124-33.741 33.772 0 18.616 15.145 33.751 33.741 33.751h582.758c18.586 0 33.741-15.135 33.741-33.751 0-18.647-15.145-33.772-33.741-33.772v0zM803.379 464.527h-582.758c-18.586 0-33.741 15.145-33.741 33.772 0 18.596 15.145 33.72 33.741 33.72h582.758c18.575 0 33.741-15.124 33.741-33.72 0-18.627-15.155-33.772-33.741-33.772v0zM803.359 311.439h-582.717c-18.606 0-33.751 15.124-33.751 33.731 0 18.565 15.145 33.761 33.751 33.761h582.717c18.606 0 33.761-15.196 33.761-33.761 0-18.606-15.145-33.731-33.761-33.731v0zM595.425 232.817l-83.425-83.415-83.415 83.415z" />
<glyph unicode="&#xe94b;" glyph-name="menu-arrow-right" d="M563.425 652.995h-447.488c-27.156 0-49.295 22.077-49.295 49.265 0 27.249 22.139 49.377 49.295 49.377h447.498c27.136 0 49.285-22.129 49.285-49.377-0.010-27.187-22.149-49.265-49.295-49.265v0zM563.425 398.653h-447.488c-27.156 0-49.295 22.118-49.295 49.357 0 27.177 22.139 49.295 49.295 49.295h447.498c27.136 0 49.285-22.118 49.285-49.295-0.010-27.238-22.149-49.357-49.295-49.357v0zM563.415 144.374h-447.468c-27.167 0-49.306 22.129-49.306 49.285 0 27.177 22.139 49.316 49.306 49.316h447.468c27.156 0 49.295-22.139 49.295-49.316 0-27.156-22.139-49.285-49.295-49.285v0zM977.94 497.306l-105.769-160.788-105.789 160.788z" />
</font>
</defs>
</svg>
